<?xml version="1.0" encoding="UTF-8" standalone="no"?>
<!-- Generator: Adobe Illustrator 16.0.0, SVG Export Plug-In . SVG Version: 6.00 Build 0)  -->

<svg
   xmlns:dc="http://purl.org/dc/elements/1.1/"
   xmlns:cc="http://creativecommons.org/ns#"
   xmlns:rdf="http://www.w3.org/1999/02/22-rdf-syntax-ns#"
   xmlns:svg="http://www.w3.org/2000/svg"
   xmlns="http://www.w3.org/2000/svg"
   xmlns:sodipodi="http://sodipodi.sourceforge.net/DTD/sodipodi-0.dtd"
   xmlns:inkscape="http://www.inkscape.org/namespaces/inkscape"
   version="1.1"
   id="svg4782"
   sodipodi:docname="manohar.svg"
   inkscape:version="0.91 r13725"
   x="0px"
   y="0px"
   width="160.29px"
   height="158.572px"
   viewBox="0 0 160.29 158.572"
   enable-background="new 0 0 160.29 158.572"
   xml:space="preserve"><metadata
     id="metadata114"><rdf:RDF><cc:Work
         rdf:about=""><dc:format>image/svg+xml</dc:format><dc:type
           rdf:resource="http://purl.org/dc/dcmitype/StillImage" /><dc:title /></cc:Work></rdf:RDF></metadata><defs
     id="defs112" /><path
     d="M160.29,146.24c0,6.627-5.373,12-12,12H12.313c-6.627,0-12-5.373-12-12V12.334c0-6.627,5.373-12,12-12  H148.29c6.627,0,12,5.373,12,12V146.24z"
     id="path3"
     fill="#F0F0F0" /><sodipodi:namedview
     id="base"
     pagecolor="#ffffff"
     inkscape:cx="39.475639"
     inkscape:cy="79.286003"
     borderopacity="1.0"
     fit-margin-left="0"
     bordercolor="#666666"
     inkscape:zoom="3.8972831"
     fit-margin-top="0"
     showgrid="false"
     inkscape:window-maximized="0"
     inkscape:window-y="0"
     inkscape:window-x="0"
     inkscape:window-height="856"
     inkscape:window-width="1440"
     inkscape:pageshadow="2"
     inkscape:pageopacity="0.0"
     fit-margin-bottom="0"
     fit-margin-right="0"
     inkscape:current-layer="svg4782"
     inkscape:document-units="px" /><g
     id="g6"><circle
       fill="#B6B4A9"
       cx="29.038"
       cy="54.94"
       r="17.92"
       id="circle8" /><path
       fill="#F0F0F0"
       d="M10.748,52.691c0,0,14.243,1.803,1.338,7.543c-1.003,0.435-1.003,0.435-1.003,0.435   S9.772,53.623,10.748,52.691z"
       id="path10" /><path
       fill="#F0F0F0"
       d="M14.515,66.283c0,0,11.345-8.796,6.28,4.387c-0.402,1.017-0.402,1.017-0.402,1.017   S14.484,67.633,14.515,66.283z"
       id="path12" /><path
       fill="#F0F0F0"
       d="M26.789,73.231c0,0,1.803-14.242,7.543-1.337c0.434,1.003,0.434,1.003,0.434,1.003   S27.722,74.206,26.789,73.231z"
       id="path14" /><path
       fill="#F0F0F0"
       d="M40.38,69.464c0,0-8.795-11.345,4.39-6.279c1.016,0.401,1.016,0.401,1.016,0.401   S41.729,69.495,40.38,69.464z"
       id="path16" /><path
       fill="#F0F0F0"
       d="M47.329,57.19c0,0-14.241-1.803-1.337-7.543c1.002-0.435,1.002-0.435,1.002-0.435   S48.304,56.258,47.329,57.19z"
       id="path18" /><path
       fill="#F0F0F0"
       d="M43.562,43.598c0,0-11.346,8.794-6.28-4.388c0.402-1.017,0.402-1.017,0.402-1.017   S43.593,42.249,43.562,43.598z"
       id="path20" /><path
       fill="#F0F0F0"
       d="M31.289,36.651c0,0-1.804,14.241-7.543,1.337c-0.435-1.003-0.435-1.003-0.435-1.003   S30.356,35.675,31.289,36.651z"
       id="path22" /><path
       fill="#F0F0F0"
       d="M17.696,40.417c0,0,8.794,11.346-4.389,6.279c-1.016-0.402-1.016-0.402-1.016-0.402   S16.346,40.386,17.696,40.417z"
       id="path24" /><circle
       fill="#F0F0F0"
       cx="29.038"
       cy="54.94"
       r="4.962"
       id="circle26" /></g><g
     id="g28"><circle
       fill="#B6B4A9"
       cx="57.031"
       cy="53.874"
       r="9.535"
       id="circle30" /><path
       fill="#F0F0F0"
       d="M47.368,55.539c0,0,7.533-1.27,1.84,3.637c-0.444,0.375-0.444,0.375-0.444,0.375   S47.014,56.164,47.368,55.539z"
       id="path32" /><path
       fill="#F0F0F0"
       d="M51.374,61.884c0,0,4.429-6.224,3.873,1.271c-0.048,0.58-0.048,0.58-0.048,0.58   S51.566,62.576,51.374,61.884z"
       id="path34" /><path
       fill="#F0F0F0"
       d="M58.694,63.538c0,0-1.269-7.532,3.638-1.84c0.375,0.444,0.375,0.444,0.375,0.444   S59.32,63.892,58.694,63.538z"
       id="path36" /><path
       fill="#F0F0F0"
       d="M65.041,59.531c0,0-6.224-4.43,1.271-3.873c0.578,0.048,0.578,0.048,0.578,0.048   S65.733,59.34,65.041,59.531z"
       id="path38" /><path
       fill="#F0F0F0"
       d="M66.695,52.211c0,0-7.533,1.27-1.84-3.637c0.444-0.375,0.444-0.375,0.444-0.375   S67.048,51.586,66.695,52.211z"
       id="path40" /><path
       fill="#F0F0F0"
       d="M62.688,45.865c0,0-4.43,6.224-3.873-1.271c0.047-0.58,0.047-0.58,0.047-0.58S62.496,45.173,62.688,45.865z   "
       id="path42" /><path
       fill="#F0F0F0"
       d="M55.368,44.211c0,0,1.268,7.533-3.637,1.84c-0.376-0.445-0.376-0.445-0.376-0.445   S54.743,43.858,55.368,44.211z"
       id="path44" /><path
       fill="#F0F0F0"
       d="M49.022,48.219c0,0,6.223,4.429-1.272,3.873c-0.579-0.049-0.579-0.049-0.579-0.049   S48.329,48.41,49.022,48.219z"
       id="path46" /><circle
       fill="#F0F0F0"
       cx="57.031"
       cy="53.875"
       r="2.64"
       id="circle48" /></g><g
     id="g50"><circle
       fill="#B6B4A9"
       cx="48.031"
       cy="34.874"
       r="9.535"
       id="circle52" /><path
       fill="#F0F0F0"
       d="M38.368,36.539c0,0,7.533-1.27,1.84,3.637c-0.444,0.375-0.444,0.375-0.444,0.375   S38.014,37.164,38.368,36.539z"
       id="path54" /><path
       fill="#F0F0F0"
       d="M42.374,42.884c0,0,4.429-6.224,3.873,1.271c-0.048,0.58-0.048,0.58-0.048,0.58   S42.566,43.576,42.374,42.884z"
       id="path56" /><path
       fill="#F0F0F0"
       d="M49.694,44.538c0,0-1.269-7.532,3.638-1.84c0.375,0.444,0.375,0.444,0.375,0.444   S50.32,44.892,49.694,44.538z"
       id="path58" /><path
       fill="#F0F0F0"
       d="M56.041,40.531c0,0-6.224-4.43,1.271-3.873c0.578,0.048,0.578,0.048,0.578,0.048   S56.733,40.34,56.041,40.531z"
       id="path60" /><path
       fill="#F0F0F0"
       d="M57.695,33.211c0,0-7.533,1.27-1.84-3.637c0.444-0.375,0.444-0.375,0.444-0.375   S58.048,32.586,57.695,33.211z"
       id="path62" /><path
       fill="#F0F0F0"
       d="M53.688,26.865c0,0-4.43,6.224-3.873-1.271c0.047-0.58,0.047-0.58,0.047-0.58S53.496,26.173,53.688,26.865z   "
       id="path64" /><path
       fill="#F0F0F0"
       d="M46.368,25.211c0,0,1.268,7.533-3.637,1.84c-0.376-0.445-0.376-0.445-0.376-0.445   S45.743,24.858,46.368,25.211z"
       id="path66" /><path
       fill="#F0F0F0"
       d="M40.022,29.219c0,0,6.223,4.429-1.272,3.873c-0.579-0.049-0.579-0.049-0.579-0.049   S39.329,29.41,40.022,29.219z"
       id="path68" /><circle
       fill="#F0F0F0"
       cx="48.031"
       cy="34.875"
       r="2.64"
       id="circle70" /></g><g
     id="g72"><path
       opacity="0.6"
       fill="#A49D9D"
       stroke="#B3B3B3"
       stroke-width="0.227"
       stroke-miterlimit="10"
       d="M160.038,78.47   c-3.479,1.322-52.12-38.722-53.645-44.04c-1.523-5.318,27.918-36.511,32.138-34.606C142.75,1.731,163.515,77.148,160.038,78.47z"
       id="path74" /><path
       fill="#E6E6E6"
       d="M159.493,77.945c-3.738,1.949-48.893-44.577-48.893-44.577S135.006,1.04,139.595,1.299   C144.184,1.558,163.231,75.997,159.493,77.945z"
       id="path76" /></g><text
     transform="matrix(0.7726 0 0 1 44.7759 19.1653)"
     font-family="'NotoSans'"
     font-size="10.5775"
     id="text78">STATIC SERVICES </text>
<g
     id="g82"><line
       fill="none"
       stroke="#B3B3B3"
       stroke-width="0.2205"
       stroke-miterlimit="10"
       x1="45.017"
       y1="114.216"
       x2="44.907"
       y2="114.294"
       id="line84" /><polygon
       fill="#263260"
       points="52.039,132.786 40.645,147.786 99.365,147.786 110.083,132.786  "
       id="polygon86" /><polygon
       opacity="0.6"
       fill="#0D809F"
       points="109.936,132.786 52.645,132.786 52.645,73.786 110.6,73.786  "
       id="polygon88" /><polygon
       opacity="0.6"
       fill="#0D809F"
       points="99.395,147.786 41.645,147.786 41.645,89.786 100.256,89.786  "
       id="polygon90" /><polyline
       opacity="0.8"
       fill="#0D809F"
       points="109.936,133.133 99.395,147.786 100.256,89.506 110.6,73.659  "
       id="polyline92" /><polyline
       opacity="0.8"
       fill="#0D809F"
       points="52.85,73.659 41.645,90.036 41.645,147.786 52.85,133.133  "
       id="polyline94" /><polygon
       opacity="0.4"
       fill="#0D809F"
       points="99.645,133.152 99.645,147.786 110.186,133.133  "
       id="polygon96" /><g
       id="g98"><g
         id="g100"><path
           id="path4152"
           inkscape:connector-curvature="0"
           fill="#FFFFFF"
           d="M78.109,100.898c-5.442,0-9.854,4.412-9.854,9.854l0,0     c0,5.444,4.412,9.856,9.854,9.856s9.855-4.412,9.855-9.856C87.964,105.31,83.551,100.898,78.109,100.898L78.109,100.898z      M78.109,101.883c4.898,0,8.869,3.971,8.869,8.868c0,4.899-3.971,8.87-8.869,8.87l0,0c-4.898,0-8.869-3.971-8.869-8.87l0,0     C69.24,105.854,73.211,101.883,78.109,101.883z" /><linearGradient
           id="path4190_1_"
           gradientUnits="userSpaceOnUse"
           x1="-624.9487"
           y1="346.2668"
           x2="-602.7749"
           y2="346.2668"
           gradientTransform="matrix(-0.4443 -0.6653 -0.6653 0.4443 35.7405 -451.4844)"><stop
             offset="0"
             style="stop-color:#FFFFFF"
             id="stop104" /><stop
             offset="1"
             style="stop-color:#FFFFFF;stop-opacity:0"
             id="stop106" /></linearGradient><circle
           id="path4190"
           opacity="0.642"
           fill="url(#path4190_1_)"
           enable-background="new    "
           cx="78.109"
           cy="110.752"
           r="8.869" /></g><path
         id="rect4174-6_1_"
         fill="#FFFFFF"
         d="M63.741,123.167l6.401-6.38c0.198-0.197,0.561-0.15,0.812,0.106l0.326,0.333    c0.25,0.256,0.292,0.624,0.095,0.821l-6.402,6.379c-0.197,0.197-0.561,0.149-0.811-0.106l-0.326-0.333    C63.586,123.731,63.543,123.364,63.741,123.167z" /></g><path
       fill="#FFFFFF"
       d="M68.61,119.557c0.6,0.629,0.767,1.443,0.372,1.819l-8.555,8.167c-0.394,0.377-1.201,0.172-1.801-0.457l0,0   c-0.6-0.629-0.767-1.443-0.372-1.819l8.555-8.166C67.204,118.724,68.01,118.928,68.61,119.557L68.61,119.557z"
       id="path110" /></g><circle
     style="opacity:1;fill:none;fill-opacity:1;stroke:#bfbfbf;stroke-width:1.4716053;stroke-miterlimit:4;stroke-dasharray:none;stroke-opacity:1"
     id="path4244"
     cx="38.765888"
     cy="9.2416573"
     r="2.9432106"
     transform="matrix(0.99360195,0.1129388,-0.1129388,0.99360195,0,0)" /><rect
     style="opacity:1;fill:#bfbfbf;fill-opacity:1;stroke:none;stroke-width:5;stroke-miterlimit:4;stroke-dasharray:none;stroke-opacity:1"
     id="rect4246"
     width="4.5217662"
     height="1.4130518"
     x="38.754929"
     y="-18.740854"
     transform="matrix(0.68039677,0.73284394,-0.73284394,0.68039677,0,0)" /></svg>