<?xml version="1.0" encoding="UTF-8" standalone="no"?>
<!-- Generator: Adobe Illustrator 16.0.0, SVG Export Plug-In . SVG Version: 6.00 Build 0)  -->

<svg
   xmlns:dc="http://purl.org/dc/elements/1.1/"
   xmlns:cc="http://creativecommons.org/ns#"
   xmlns:rdf="http://www.w3.org/1999/02/22-rdf-syntax-ns#"
   xmlns:svg="http://www.w3.org/2000/svg"
   xmlns="http://www.w3.org/2000/svg"
   xmlns:sodipodi="http://sodipodi.sourceforge.net/DTD/sodipodi-0.dtd"
   xmlns:inkscape="http://www.inkscape.org/namespaces/inkscape"
   version="1.1"
   id="svg4782"
   sodipodi:docname="manohar.svg"
   inkscape:version="0.91 r13725"
   x="0px"
   y="0px"
   width="160.29px"
   height="158.572px"
   viewBox="0 0 160.29 158.572"
   enable-background="new 0 0 160.29 158.572"
   xml:space="preserve"><metadata
     id="metadata114"><rdf:RDF><cc:Work
         rdf:about=""><dc:format>image/svg+xml</dc:format><dc:type
           rdf:resource="http://purl.org/dc/dcmitype/StillImage" /><dc:title></dc:title></cc:Work></rdf:RDF></metadata><defs
     id="defs112" /><sodipodi:namedview
     id="base"
     pagecolor="#ffffff"
     inkscape:cx="47.128134"
     inkscape:cy="109.26355"
     borderopacity="1"
     fit-margin-left="0"
     bordercolor="#000000"
     inkscape:zoom="1.5774599"
     fit-margin-top="0"
     showgrid="false"
     inkscape:window-maximized="0"
     inkscape:window-y="9"
     inkscape:window-x="38"
     inkscape:window-height="856"
     inkscape:window-width="1440"
     inkscape:pageshadow="2"
     inkscape:pageopacity="0.0"
     fit-margin-bottom="0"
     fit-margin-right="0"
     inkscape:current-layer="svg4782"
     inkscape:document-units="px"
     borderlayer="true" /><path
     style="fill:#b6b4a9"
     d="M 56.148438 46.708984 A 9.5349998 9.5349998 0 0 0 54.486328 46.857422 C 54.531693 47.148896 54.775098 48.569516 54.505859 49.634766 C 54.431828 49.927672 54.319502 50.176436 54.154297 50.339844 C 53.989092 50.503252 53.771773 50.582336 53.486328 50.535156 C 53.200883 50.487977 52.846861 50.315424 52.412109 49.976562 C 51.977357 49.637705 51.460781 49.131547 50.847656 48.419922 L 50.798828 48.361328 A 9.5349998 9.5349998 0 0 0 48.345703 50.792969 C 48.593583 50.9743 49.754584 51.795569 50.314453 52.734375 C 50.469172 52.993812 50.563838 53.248105 50.5625 53.480469 C 50.561162 53.712832 50.463805 53.923281 50.228516 54.091797 C 49.993227 54.260312 49.621354 54.387184 49.074219 54.455078 C 48.527084 54.522973 47.804062 54.530436 46.867188 54.460938 L 46.791016 54.455078 A 9.5349998 9.5349998 0 0 0 46.613281 56.244141 A 9.5349998 9.5349998 0 0 0 46.771484 57.90625 C 47.071454 57.859627 48.477559 57.618653 49.539062 57.886719 C 49.831969 57.960687 50.080732 58.073096 50.244141 58.238281 C 50.407549 58.403467 50.486633 58.620758 50.439453 58.90625 C 50.392273 59.191742 50.219717 59.54558 49.880859 59.980469 C 49.542002 60.415357 49.035844 60.931547 48.324219 61.544922 L 48.267578 61.59375 A 9.5349998 9.5349998 0 0 0 50.691406 64.048828 C 50.870568 63.803772 51.696509 62.639057 52.636719 62.078125 C 52.896156 61.923344 53.150452 61.826846 53.382812 61.828125 C 53.615176 61.829404 53.825625 61.928821 53.994141 62.164062 C 54.162656 62.399305 54.289527 62.771252 54.357422 63.318359 C 54.425316 63.865467 54.432781 64.588516 54.363281 65.525391 L 54.357422 65.601562 A 9.5349998 9.5349998 0 0 0 56.148438 65.779297 A 9.5349998 9.5349998 0 0 0 57.808594 65.621094 C 57.762011 65.321164 57.52077 63.914907 57.789062 62.853516 C 57.863094 62.560641 57.975381 62.311833 58.140625 62.148438 C 58.305869 61.985039 58.525008 61.905969 58.810547 61.953125 C 59.096086 62.000281 59.44985 62.17293 59.884766 62.511719 C 60.319682 62.850508 60.835844 63.356859 61.449219 64.068359 L 61.498047 64.125 A 9.5349998 9.5349998 0 0 0 63.955078 61.699219 C 63.7109 61.520682 62.54361 60.696611 61.982422 59.755859 C 61.827641 59.496391 61.731143 59.240189 61.732422 59.007812 C 61.733701 58.775439 61.833117 58.56693 62.068359 58.398438 C 62.303602 58.229945 62.675549 58.101029 63.222656 58.033203 C 63.769764 57.965377 64.492809 57.957719 65.429688 58.027344 L 65.507812 58.033203 A 9.5349998 9.5349998 0 0 0 65.683594 56.244141 A 9.5349998 9.5349998 0 0 0 65.525391 54.582031 C 65.225421 54.628655 63.819317 54.869628 62.757812 54.601562 C 62.464906 54.527594 62.216143 54.415186 62.052734 54.25 C 61.889326 54.084814 61.810242 53.867523 61.857422 53.582031 C 61.904602 53.296539 62.077158 52.942703 62.416016 52.507812 C 62.754873 52.072924 63.261031 51.556734 63.972656 50.943359 L 64.029297 50.894531 A 9.5349998 9.5349998 0 0 0 61.603516 48.4375 C 61.424979 48.681678 60.600908 49.848968 59.660156 50.410156 C 59.400687 50.564937 59.144482 50.661436 58.912109 50.660156 C 58.679736 50.658877 58.471227 50.559461 58.302734 50.324219 C 58.134242 50.088977 58.007279 49.717029 57.939453 49.169922 C 57.871627 48.622814 57.862016 47.899766 57.931641 46.962891 L 57.9375 46.884766 A 9.5349998 9.5349998 0 0 0 56.148438 46.708984 z M 56.148438 53.605469 A 2.6400001 2.6400001 0 0 1 56.412109 53.617188 A 2.6400001 2.6400001 0 0 1 56.671875 53.658203 A 2.6400001 2.6400001 0 0 1 56.927734 53.722656 A 2.6400001 2.6400001 0 0 1 57.175781 53.8125 A 2.6400001 2.6400001 0 0 1 57.414062 53.927734 A 2.6400001 2.6400001 0 0 1 57.638672 54.066406 A 2.6400001 2.6400001 0 0 1 57.849609 54.224609 A 2.6400001 2.6400001 0 0 1 58.041016 54.40625 A 2.6400001 2.6400001 0 0 1 58.216797 54.603516 A 2.6400001 2.6400001 0 0 1 58.369141 54.818359 A 2.6400001 2.6400001 0 0 1 58.5 55.046875 A 2.6400001 2.6400001 0 0 1 58.609375 55.287109 A 2.6400001 2.6400001 0 0 1 58.691406 55.539062 A 2.6400001 2.6400001 0 0 1 58.75 55.796875 A 2.6400001 2.6400001 0 0 1 58.78125 56.058594 A 2.6400001 2.6400001 0 0 1 58.787109 56.244141 A 2.6400001 2.6400001 0 0 1 58.775391 56.507812 A 2.6400001 2.6400001 0 0 1 58.736328 56.769531 A 2.6400001 2.6400001 0 0 1 58.669922 57.025391 A 2.6400001 2.6400001 0 0 1 58.580078 57.273438 A 2.6400001 2.6400001 0 0 1 58.464844 57.509766 A 2.6400001 2.6400001 0 0 1 58.326172 57.734375 A 2.6400001 2.6400001 0 0 1 58.167969 57.945312 A 2.6400001 2.6400001 0 0 1 57.988281 58.138672 A 2.6400001 2.6400001 0 0 1 57.789062 58.3125 A 2.6400001 2.6400001 0 0 1 57.574219 58.466797 A 2.6400001 2.6400001 0 0 1 57.345703 58.597656 A 2.6400001 2.6400001 0 0 1 57.105469 58.705078 A 2.6400001 2.6400001 0 0 1 56.853516 58.789062 A 2.6400001 2.6400001 0 0 1 56.597656 58.845703 A 2.6400001 2.6400001 0 0 1 56.333984 58.878906 A 2.6400001 2.6400001 0 0 1 56.148438 58.884766 A 2.6400001 2.6400001 0 0 1 55.884766 58.871094 A 2.6400001 2.6400001 0 0 1 55.623047 58.832031 A 2.6400001 2.6400001 0 0 1 55.367188 58.767578 A 2.6400001 2.6400001 0 0 1 55.119141 58.675781 A 2.6400001 2.6400001 0 0 1 54.882812 58.560547 A 2.6400001 2.6400001 0 0 1 54.658203 58.423828 A 2.6400001 2.6400001 0 0 1 54.447266 58.263672 A 2.6400001 2.6400001 0 0 1 54.253906 58.083984 A 2.6400001 2.6400001 0 0 1 54.080078 57.884766 A 2.6400001 2.6400001 0 0 1 53.925781 57.671875 A 2.6400001 2.6400001 0 0 1 53.794922 57.441406 A 2.6400001 2.6400001 0 0 1 53.6875 57.201172 A 2.6400001 2.6400001 0 0 1 53.603516 56.951172 A 2.6400001 2.6400001 0 0 1 53.546875 56.693359 A 2.6400001 2.6400001 0 0 1 53.513672 56.431641 A 2.6400001 2.6400001 0 0 1 53.507812 56.244141 A 2.6400001 2.6400001 0 0 1 53.521484 55.980469 A 2.6400001 2.6400001 0 0 1 53.560547 55.720703 A 2.6400001 2.6400001 0 0 1 53.625 55.464844 A 2.6400001 2.6400001 0 0 1 53.716797 55.216797 A 2.6400001 2.6400001 0 0 1 53.832031 54.978516 A 2.6400001 2.6400001 0 0 1 53.96875 54.753906 A 2.6400001 2.6400001 0 0 1 54.128906 54.542969 A 2.6400001 2.6400001 0 0 1 54.308594 54.351562 A 2.6400001 2.6400001 0 0 1 54.507812 54.175781 A 2.6400001 2.6400001 0 0 1 54.720703 54.023438 A 2.6400001 2.6400001 0 0 1 54.951172 53.892578 A 2.6400001 2.6400001 0 0 1 55.191406 53.783203 A 2.6400001 2.6400001 0 0 1 55.441406 53.701172 A 2.6400001 2.6400001 0 0 1 55.699219 53.642578 A 2.6400001 2.6400001 0 0 1 55.960938 53.611328 A 2.6400001 2.6400001 0 0 1 56.148438 53.605469 z "
     id="path4379" /><path
     style="fill:#b6b4a9"
     d="M 47.148438 27.708984 A 9.5349998 9.5349998 0 0 0 45.486328 27.857422 C 45.531693 28.148896 45.775098 29.569516 45.505859 30.634766 C 45.431828 30.927672 45.319502 31.176436 45.154297 31.339844 C 44.989092 31.503252 44.771773 31.582336 44.486328 31.535156 C 44.200883 31.487977 43.846861 31.31542 43.412109 30.976562 C 42.977357 30.637705 42.460781 30.131547 41.847656 29.419922 L 41.798828 29.361328 A 9.5349998 9.5349998 0 0 0 39.345703 31.792969 C 39.593583 31.9743 40.754584 32.795569 41.314453 33.734375 C 41.469172 33.993812 41.563838 34.248105 41.5625 34.480469 C 41.561162 34.712832 41.463805 34.923281 41.228516 35.091797 C 40.993227 35.260312 40.621354 35.387184 40.074219 35.455078 C 39.527084 35.522973 38.804063 35.530437 37.867188 35.460938 L 37.791016 35.455078 A 9.5349998 9.5349998 0 0 0 37.613281 37.244141 A 9.5349998 9.5349998 0 0 0 37.771484 38.90625 C 38.071454 38.859627 39.477559 38.618653 40.539062 38.886719 C 40.831969 38.960687 41.080732 39.073096 41.244141 39.238281 C 41.407549 39.403467 41.486633 39.620758 41.439453 39.90625 C 41.392273 40.191742 41.219717 40.54558 40.880859 40.980469 C 40.542002 41.415357 40.035844 41.931547 39.324219 42.544922 L 39.267578 42.59375 A 9.5349998 9.5349998 0 0 0 41.691406 45.048828 C 41.870568 44.803772 42.696509 43.639057 43.636719 43.078125 C 43.896156 42.923344 44.150452 42.826846 44.382812 42.828125 C 44.615176 42.829404 44.825625 42.928821 44.994141 43.164062 C 45.162656 43.399305 45.289527 43.771252 45.357422 44.318359 C 45.425316 44.865467 45.432781 45.588516 45.363281 46.525391 L 45.357422 46.601562 A 9.5349998 9.5349998 0 0 0 47.148438 46.779297 A 9.5349998 9.5349998 0 0 0 48.808594 46.621094 C 48.762011 46.321164 48.52077 44.914907 48.789062 43.853516 C 48.863094 43.560641 48.975381 43.311833 49.140625 43.148438 C 49.305869 42.985039 49.525008 42.905969 49.810547 42.953125 C 50.096086 43.000281 50.44985 43.17293 50.884766 43.511719 C 51.319682 43.850508 51.835844 44.356859 52.449219 45.068359 L 52.498047 45.125 A 9.5349998 9.5349998 0 0 0 54.955078 42.699219 C 54.7109 42.520682 53.54361 41.696611 52.982422 40.755859 C 52.827641 40.496391 52.731143 40.240187 52.732422 40.007812 C 52.733701 39.775439 52.833117 39.56693 53.068359 39.398438 C 53.303602 39.229945 53.675549 39.101029 54.222656 39.033203 C 54.769764 38.965377 55.492812 38.957719 56.429688 39.027344 L 56.507812 39.033203 A 9.5349998 9.5349998 0 0 0 56.683594 37.244141 A 9.5349998 9.5349998 0 0 0 56.525391 35.582031 C 56.225421 35.628655 54.819317 35.869628 53.757812 35.601562 C 53.464906 35.527594 53.216143 35.415186 53.052734 35.25 C 52.889326 35.084814 52.810242 34.867523 52.857422 34.582031 C 52.904602 34.296539 53.077158 33.942701 53.416016 33.507812 C 53.754873 33.072924 54.261031 32.556734 54.972656 31.943359 L 55.029297 31.894531 A 9.5349998 9.5349998 0 0 0 52.603516 29.4375 C 52.424979 29.681678 51.600908 30.848968 50.660156 31.410156 C 50.400687 31.564937 50.144482 31.661436 49.912109 31.660156 C 49.679736 31.658877 49.471227 31.559461 49.302734 31.324219 C 49.134242 31.088977 49.007279 30.717029 48.939453 30.169922 C 48.871627 29.622814 48.862016 28.899766 48.931641 27.962891 L 48.9375 27.884766 A 9.5349998 9.5349998 0 0 0 47.148438 27.708984 z M 47.148438 34.605469 A 2.6400001 2.6400001 0 0 1 47.412109 34.617188 A 2.6400001 2.6400001 0 0 1 47.671875 34.658203 A 2.6400001 2.6400001 0 0 1 47.927734 34.722656 A 2.6400001 2.6400001 0 0 1 48.175781 34.8125 A 2.6400001 2.6400001 0 0 1 48.414062 34.927734 A 2.6400001 2.6400001 0 0 1 48.638672 35.066406 A 2.6400001 2.6400001 0 0 1 48.849609 35.224609 A 2.6400001 2.6400001 0 0 1 49.041016 35.40625 A 2.6400001 2.6400001 0 0 1 49.216797 35.603516 A 2.6400001 2.6400001 0 0 1 49.369141 35.818359 A 2.6400001 2.6400001 0 0 1 49.5 36.046875 A 2.6400001 2.6400001 0 0 1 49.609375 36.287109 A 2.6400001 2.6400001 0 0 1 49.691406 36.539062 A 2.6400001 2.6400001 0 0 1 49.75 36.796875 A 2.6400001 2.6400001 0 0 1 49.78125 37.058594 A 2.6400001 2.6400001 0 0 1 49.787109 37.244141 A 2.6400001 2.6400001 0 0 1 49.775391 37.507812 A 2.6400001 2.6400001 0 0 1 49.736328 37.769531 A 2.6400001 2.6400001 0 0 1 49.669922 38.025391 A 2.6400001 2.6400001 0 0 1 49.580078 38.273438 A 2.6400001 2.6400001 0 0 1 49.464844 38.509766 A 2.6400001 2.6400001 0 0 1 49.326172 38.734375 A 2.6400001 2.6400001 0 0 1 49.167969 38.945312 A 2.6400001 2.6400001 0 0 1 48.988281 39.138672 A 2.6400001 2.6400001 0 0 1 48.789062 39.3125 A 2.6400001 2.6400001 0 0 1 48.574219 39.466797 A 2.6400001 2.6400001 0 0 1 48.345703 39.597656 A 2.6400001 2.6400001 0 0 1 48.105469 39.705078 A 2.6400001 2.6400001 0 0 1 47.853516 39.789062 A 2.6400001 2.6400001 0 0 1 47.597656 39.845703 A 2.6400001 2.6400001 0 0 1 47.333984 39.878906 A 2.6400001 2.6400001 0 0 1 47.148438 39.884766 A 2.6400001 2.6400001 0 0 1 46.884766 39.871094 A 2.6400001 2.6400001 0 0 1 46.623047 39.832031 A 2.6400001 2.6400001 0 0 1 46.367188 39.767578 A 2.6400001 2.6400001 0 0 1 46.119141 39.675781 A 2.6400001 2.6400001 0 0 1 45.882812 39.560547 A 2.6400001 2.6400001 0 0 1 45.658203 39.423828 A 2.6400001 2.6400001 0 0 1 45.447266 39.263672 A 2.6400001 2.6400001 0 0 1 45.253906 39.083984 A 2.6400001 2.6400001 0 0 1 45.080078 38.884766 A 2.6400001 2.6400001 0 0 1 44.925781 38.671875 A 2.6400001 2.6400001 0 0 1 44.794922 38.441406 A 2.6400001 2.6400001 0 0 1 44.6875 38.201172 A 2.6400001 2.6400001 0 0 1 44.603516 37.951172 A 2.6400001 2.6400001 0 0 1 44.546875 37.693359 A 2.6400001 2.6400001 0 0 1 44.513672 37.431641 A 2.6400001 2.6400001 0 0 1 44.507812 37.244141 A 2.6400001 2.6400001 0 0 1 44.521484 36.980469 A 2.6400001 2.6400001 0 0 1 44.560547 36.720703 A 2.6400001 2.6400001 0 0 1 44.625 36.464844 A 2.6400001 2.6400001 0 0 1 44.716797 36.216797 A 2.6400001 2.6400001 0 0 1 44.832031 35.978516 A 2.6400001 2.6400001 0 0 1 44.96875 35.753906 A 2.6400001 2.6400001 0 0 1 45.128906 35.542969 A 2.6400001 2.6400001 0 0 1 45.308594 35.351562 A 2.6400001 2.6400001 0 0 1 45.507812 35.175781 A 2.6400001 2.6400001 0 0 1 45.720703 35.023438 A 2.6400001 2.6400001 0 0 1 45.951172 34.892578 A 2.6400001 2.6400001 0 0 1 46.191406 34.783203 A 2.6400001 2.6400001 0 0 1 46.441406 34.701172 A 2.6400001 2.6400001 0 0 1 46.699219 34.642578 A 2.6400001 2.6400001 0 0 1 46.960938 34.611328 A 2.6400001 2.6400001 0 0 1 47.148438 34.605469 z "
     id="path4355" /><g
     id="g4255"
     transform="translate(-0.36979668,-1.4791867)"><path
       style="fill:#b6b4a9"
       d="M 30.310547 39.544922 C 30.265654 39.854197 30.227012 40.204638 30.035156 41.044922 C 29.776359 42.178391 29.371297 43.553719 28.787109 44.527344 C 28.495016 45.014156 28.157412 45.401113 27.771484 45.605469 C 27.385557 45.809824 26.950977 45.831562 26.462891 45.591797 C 25.974805 45.352031 25.432553 44.85141 24.833984 44.005859 C 24.235416 43.160309 23.580656 41.970422 22.863281 40.357422 L 22.802734 40.216797 A 17.92 17.92 0 0 0 17.121094 43.234375 C 17.310077 43.487781 17.525384 43.756019 17.980469 44.480469 C 18.598922 45.464984 19.287188 46.724609 19.5625 47.826172 C 19.700156 48.376953 19.733896 48.887295 19.605469 49.304688 C 19.477041 49.722079 19.186586 50.047086 18.671875 50.222656 C 18.157164 50.398227 17.419631 50.424686 16.398438 50.25 C 15.377244 50.075314 14.071703 49.699781 12.423828 49.066406 L 12.304688 49.019531 A 17.92 17.92 0 0 0 10.386719 55.15625 C 10.695425 55.201009 11.047202 55.239601 11.888672 55.431641 C 13.022312 55.690359 14.399234 56.095555 15.373047 56.679688 C 15.859953 56.97175 16.246748 57.309396 16.451172 57.695312 C 16.655596 58.08123 16.677242 58.515797 16.4375 59.003906 C 16.197758 59.492016 15.697155 60.032223 14.851562 60.630859 C 14.005973 61.229496 12.81625 61.886016 11.203125 62.603516 L 11.058594 62.666016 A 17.92 17.92 0 0 0 14.054688 68.361328 C 14.299765 68.178055 14.58699 67.948885 15.326172 67.484375 C 16.310625 66.865734 17.570312 66.177906 18.671875 65.902344 C 19.222656 65.764562 19.732959 65.729111 20.150391 65.857422 C 20.567822 65.985732 20.892695 66.278352 21.068359 66.792969 C 21.244023 67.307586 21.270225 68.045268 21.095703 69.066406 C 20.921182 70.087545 20.545234 71.391188 19.912109 73.039062 L 19.857422 73.177734 A 17.92 17.92 0 0 0 26.001953 75.076172 C 26.046906 74.766423 26.085725 74.41573 26.277344 73.576172 C 26.536062 72.442625 26.941266 71.065484 27.525391 70.091797 C 27.817453 69.604953 28.153145 69.21999 28.539062 69.015625 C 28.924981 68.81126 29.3615 68.787555 29.849609 69.027344 C 30.337719 69.267133 30.877926 69.769615 31.476562 70.615234 C 32.075199 71.460854 32.731719 72.650547 33.449219 74.263672 L 33.511719 74.40625 A 17.92 17.92 0 0 0 39.193359 71.394531 C 39.006115 71.143698 38.78619 70.869687 38.328125 70.140625 C 37.709609 69.156188 37.023359 67.896422 36.748047 66.794922 C 36.610391 66.244172 36.574658 65.731836 36.703125 65.314453 C 36.831592 64.89707 37.123867 64.574031 37.638672 64.398438 C 38.153477 64.222842 38.890752 64.194523 39.912109 64.369141 C 40.933467 64.543758 42.238594 64.921432 43.886719 65.554688 L 44.023438 65.607422 A 17.92 17.92 0 0 0 45.919922 59.462891 C 45.609955 59.417893 45.260956 59.379024 44.421875 59.1875 C 43.288406 58.928781 41.913078 58.525531 40.939453 57.941406 C 40.452641 57.649344 40.065684 57.311699 39.861328 56.925781 C 39.656973 56.539863 39.635234 56.105297 39.875 55.617188 C 40.114766 55.129078 40.615386 54.586918 41.460938 53.988281 C 42.306488 53.389645 43.496375 52.735078 45.109375 52.017578 L 45.251953 51.955078 A 17.92 17.92 0 0 0 42.240234 46.271484 C 41.989085 46.458911 41.714928 46.677069 40.986328 47.134766 C 40.001797 47.753234 38.740297 48.441422 37.638672 48.716797 C 37.087859 48.854484 36.577598 48.890098 36.160156 48.761719 C 35.742715 48.63334 35.417828 48.340812 35.242188 47.826172 C 35.066547 47.311531 35.040254 46.573832 35.214844 45.552734 C 35.389434 44.531637 35.765188 43.227828 36.398438 41.580078 L 36.453125 41.441406 A 17.92 17.92 0 0 0 30.310547 39.544922 z M 28.154297 52.347656 A 4.9619999 4.9619999 0 0 1 28.650391 52.373047 A 4.9619999 4.9619999 0 0 1 29.140625 52.447266 A 4.9619999 4.9619999 0 0 1 29.621094 52.568359 A 4.9619999 4.9619999 0 0 1 30.087891 52.740234 A 4.9619999 4.9619999 0 0 1 30.533203 52.955078 A 4.9619999 4.9619999 0 0 1 30.957031 53.214844 A 4.9619999 4.9619999 0 0 1 31.351562 53.513672 A 4.9619999 4.9619999 0 0 1 31.714844 53.853516 A 4.9619999 4.9619999 0 0 1 32.041016 54.224609 A 4.9619999 4.9619999 0 0 1 32.330078 54.628906 A 4.9619999 4.9619999 0 0 1 32.578125 55.058594 A 4.9619999 4.9619999 0 0 1 32.779297 55.511719 A 4.9619999 4.9619999 0 0 1 32.935547 55.982422 A 4.9619999 4.9619999 0 0 1 33.044922 56.466797 A 4.9619999 4.9619999 0 0 1 33.105469 56.958984 A 4.9619999 4.9619999 0 0 1 33.117188 57.310547 A 4.9619999 4.9619999 0 0 1 33.091797 57.804688 A 4.9619999 4.9619999 0 0 1 33.017578 58.294922 A 4.9619999 4.9619999 0 0 1 32.894531 58.775391 A 4.9619999 4.9619999 0 0 1 32.724609 59.242188 A 4.9619999 4.9619999 0 0 1 32.509766 59.689453 A 4.9619999 4.9619999 0 0 1 32.25 60.111328 A 4.9619999 4.9619999 0 0 1 31.949219 60.505859 A 4.9619999 4.9619999 0 0 1 31.611328 60.869141 A 4.9619999 4.9619999 0 0 1 31.240234 61.197266 A 4.9619999 4.9619999 0 0 1 30.835938 61.484375 A 4.9619999 4.9619999 0 0 1 30.40625 61.732422 A 4.9619999 4.9619999 0 0 1 29.953125 61.933594 A 4.9619999 4.9619999 0 0 1 29.482422 62.091797 A 4.9619999 4.9619999 0 0 1 28.998047 62.199219 A 4.9619999 4.9619999 0 0 1 28.505859 62.259766 A 4.9619999 4.9619999 0 0 1 28.154297 62.271484 A 4.9619999 4.9619999 0 0 1 27.660156 62.246094 A 4.9619999 4.9619999 0 0 1 27.169922 62.171875 A 4.9619999 4.9619999 0 0 1 26.689453 62.050781 A 4.9619999 4.9619999 0 0 1 26.222656 61.880859 A 4.9619999 4.9619999 0 0 1 25.775391 61.664062 A 4.9619999 4.9619999 0 0 1 25.353516 61.404297 A 4.9619999 4.9619999 0 0 1 24.958984 61.105469 A 4.9619999 4.9619999 0 0 1 24.595703 60.767578 A 4.9619999 4.9619999 0 0 1 24.267578 60.394531 A 4.9619999 4.9619999 0 0 1 23.980469 59.990234 A 4.9619999 4.9619999 0 0 1 23.732422 59.560547 A 4.9619999 4.9619999 0 0 1 23.529297 59.107422 A 4.9619999 4.9619999 0 0 1 23.373047 58.636719 A 4.9619999 4.9619999 0 0 1 23.265625 58.152344 A 4.9619999 4.9619999 0 0 1 23.205078 57.660156 A 4.9619999 4.9619999 0 0 1 23.193359 57.310547 A 4.9619999 4.9619999 0 0 1 23.21875 56.814453 A 4.9619999 4.9619999 0 0 1 23.291016 56.324219 A 4.9619999 4.9619999 0 0 1 23.414062 55.84375 A 4.9619999 4.9619999 0 0 1 23.583984 55.376953 A 4.9619999 4.9619999 0 0 1 23.800781 54.931641 A 4.9619999 4.9619999 0 0 1 24.060547 54.507812 A 4.9619999 4.9619999 0 0 1 24.359375 54.113281 A 4.9619999 4.9619999 0 0 1 24.697266 53.75 A 4.9619999 4.9619999 0 0 1 25.070312 53.421875 A 4.9619999 4.9619999 0 0 1 25.474609 53.134766 A 4.9619999 4.9619999 0 0 1 25.904297 52.886719 A 4.9619999 4.9619999 0 0 1 26.357422 52.685547 A 4.9619999 4.9619999 0 0 1 26.828125 52.529297 A 4.9619999 4.9619999 0 0 1 27.3125 52.419922 A 4.9619999 4.9619999 0 0 1 27.804688 52.359375 A 4.9619999 4.9619999 0 0 1 28.154297 52.347656 z "
       id="path4343"
       transform="translate(0.36979668,1.4791867)" /></g><text
     transform="scale(0.87897668,1.1376866)"
     font-size="10.5775"
     id="text78"
     style="font-size:9.29737568px;font-family:NotoSans"
     x="49.936394"
     y="18.928717"> </text>
<g
     id="g82"
     transform="translate(24.315609,-25.055202)"><line
       stroke-miterlimit="10"
       x1="45.016998"
       y1="114.216"
       x2="44.907001"
       y2="114.294"
       id="line84"
       style="fill:none;stroke:#b3b3b3;stroke-width:0.22050001;stroke-miterlimit:10" /><polygon
       points="52.039,132.786 40.645,147.786 99.365,147.786 110.083,132.786 "
       id="polygon86"
       style="fill:#263260" /><polygon
       points="109.936,132.786 52.645,132.786 52.645,73.786 110.6,73.786 "
       id="polygon88"
       style="opacity:0.6;fill:#0d809f" /><polygon
       points="99.395,147.786 41.645,147.786 41.645,89.786 100.256,89.786 "
       id="polygon90"
       style="opacity:0.6;fill:#0d809f" /><polyline
       points="109.936,133.133 99.395,147.786 100.256,89.506 110.6,73.659  "
       id="polyline92"
       style="opacity:0.8;fill:#0d809f" /><polyline
       points="52.85,73.659 41.645,90.036 41.645,147.786 52.85,133.133  "
       id="polyline94"
       style="opacity:0.8;fill:#0d809f" /><polygon
       points="99.645,147.786 110.186,133.133 99.645,133.152 "
       id="polygon96"
       style="opacity:0.4;fill:#0d809f" /><g
       id="g98"><g
         id="g100"><path
           id="path4152"
           inkscape:connector-curvature="0"
           d="m 78.109,100.898 c -5.442,0 -9.854,4.412 -9.854,9.854 l 0,0 c 0,5.444 4.412,9.856 9.854,9.856 5.442,0 9.855,-4.412 9.855,-9.856 0,-5.442 -4.413,-9.854 -9.855,-9.854 l 0,0 z m 0,0.985 c 4.898,0 8.869,3.971 8.869,8.868 0,4.899 -3.971,8.87 -8.869,8.87 l 0,0 c -4.898,0 -8.869,-3.971 -8.869,-8.87 l 0,0 c 0,-4.897 3.971,-8.868 8.869,-8.868 z"
           style="fill:#ffffff" /><linearGradient
           id="path4190_1_"
           gradientUnits="userSpaceOnUse"
           x1="-624.94873"
           y1="346.26682"
           x2="-602.7749"
           y2="346.26682"
           gradientTransform="matrix(-0.4443,-0.6653,-0.6653,0.4443,35.7405,-451.4844)"><stop
             offset="0"
             style="stop-color:#FFFFFF"
             id="stop104" /><stop
             offset="1"
             style="stop-color:#FFFFFF;stop-opacity:0"
             id="stop106" /></linearGradient><circle
           id="path4190"
           enable-background="new    "
           cx="78.109001"
           cy="110.752"
           r="8.8690004"
           style="opacity:0.64200003;fill:url(#path4190_1_)" /></g><path
         id="rect4174-6_1_"
         d="m 63.741,123.167 6.401,-6.38 c 0.198,-0.197 0.561,-0.15 0.812,0.106 l 0.326,0.333 c 0.25,0.256 0.292,0.624 0.095,0.821 l -6.402,6.379 c -0.197,0.197 -0.561,0.149 -0.811,-0.106 l -0.326,-0.333 c -0.25,-0.256 -0.293,-0.623 -0.095,-0.82 z"
         inkscape:connector-curvature="0"
         style="fill:#ffffff" /></g><path
       d="m 68.61,119.557 c 0.6,0.629 0.767,1.443 0.372,1.819 l -8.555,8.167 c -0.394,0.377 -1.201,0.172 -1.801,-0.457 l 0,0 c -0.6,-0.629 -0.767,-1.443 -0.372,-1.819 l 8.555,-8.166 c 0.395,-0.377 1.201,-0.173 1.801,0.456 l 0,0 z"
       id="path110"
       inkscape:connector-curvature="0"
       style="fill:#ffffff" /></g></svg>