<?xml version="1.0" encoding="UTF-8" standalone="no"?>
<!-- Generator: Adobe Illustrator 16.0.0, SVG Export Plug-In . SVG Version: 6.00 Build 0)  -->

<svg
   xmlns:dc="http://purl.org/dc/elements/1.1/"
   xmlns:cc="http://creativecommons.org/ns#"
   xmlns:rdf="http://www.w3.org/1999/02/22-rdf-syntax-ns#"
   xmlns:svg="http://www.w3.org/2000/svg"
   xmlns="http://www.w3.org/2000/svg"
   xmlns:sodipodi="http://sodipodi.sourceforge.net/DTD/sodipodi-0.dtd"
   xmlns:inkscape="http://www.inkscape.org/namespaces/inkscape"
   version="1.1"
   id="svg6355"
   sodipodi:docname="manohar_bg.svg"
   inkscape:version="0.92.2 (5c3e80d, 2017-08-06)"
   x="0px"
   y="0px"
   width="56.546791mm"
   height="55.940941mm"
   viewBox="0 0 213.72016 211.43032"
   enable-background="new 0 0 160.29 158.572"
   xml:space="preserve"><metadata
     id="metadata4131"><rdf:RDF><cc:Work
         rdf:about=""><dc:format>image/svg+xml</dc:format><dc:type
           rdf:resource="http://purl.org/dc/dcmitype/StillImage" /><dc:title></dc:title></cc:Work></rdf:RDF></metadata><defs
     id="defs4129" /><sodipodi:namedview
     fit-margin-left="0"
     fit-margin-top="0"
     showgrid="false"
     inkscape:cy="54.410642"
     inkscape:cx="128.38886"
     inkscape:zoom="1.4"
     borderopacity="1.0"
     bordercolor="#666666"
     pagecolor="#ffffff"
     id="base"
     inkscape:window-maximized="0"
     inkscape:window-y="1197"
     inkscape:window-x="644"
     inkscape:window-height="1057"
     inkscape:window-width="1413"
     fit-margin-bottom="0"
     fit-margin-right="0"
     inkscape:document-units="mm"
     inkscape:pageopacity="0.0"
     inkscape:pageshadow="2"
     inkscape:current-layer="svg6355"
     units="mm" /><path
     id="rect4136-3-5"
     d="M 31.997277,0.20412553 H 181.70454 c 17.67316,0 31.99728,14.31287947 31.99728,31.96920547 V 179.46078 c 0,17.65633 -14.32412,31.96921 -31.99728,31.96921 H 31.997277 C 14.325448,211.42999 0,197.11711 0,179.46078 V 32.173331 C 0,14.517005 14.325448,0.20412553 31.997277,0.20412553 Z"
     inkscape:connector-curvature="0"
     style="fill:#0d809f;fill-opacity:0.94120029;stroke-width:1.33263493" /><linearGradient
     id="rect4136-5-2-3_1_"
     gradientUnits="userSpaceOnUse"
     x1="145.9243"
     y1="-253.60229"
     x2="346.26611"
     y2="-253.60229"
     gradientTransform="matrix(1.0665759,0,0,-1.0656402,-155.62836,-98.479484)"><stop
       offset="0"
       style="stop-color:#FFFFFF"
       id="stop4099" /><stop
       offset="1"
       style="stop-color:#FFFFFF;stop-opacity:0"
       id="stop4101" /></linearGradient><path
     id="rect4136-5-2-3"
     inkscape:connector-curvature="0"
     enable-background="new    "
     d="m 63.205288,132.10508 c -21.654157,0.016 -43.104332,2.22451 -63.1919558,6.50705 v 40.84998 c 0,17.71094 14.2707858,31.96921 31.9972768,31.96921 H 181.71787 c 17.39452,0 31.45066,-13.73211 31.97328,-30.97816 -29.26284,-29.70073 -87.24724,-48.33077 -150.485862,-48.34808 z"
     style="opacity:0.64600004;fill:url(#rect4136-5-2-3_1_);stroke-width:1.33263493" /><path
     id="path4379"
     inkscape:connector-curvature="0"
     d="m 80.730464,61.040192 c -0.881259,0 -1.761184,0.07859 -2.630443,0.233109 0.07199,0.456893 0.457294,2.688081 0.03066,4.361137 -0.117323,0.459557 -0.294642,0.849848 -0.557286,1.106933 -0.259978,0.257086 -0.603949,0.380967 -1.057243,0.306372 C 76.065527,66.97448 75.504242,66.70141 74.8163,66.169922 74.128359,65.638434 73.311095,64.8432 72.340511,63.72561 l -0.07599,-0.09058 c -1.518538,1.027011 -2.834426,2.321764 -3.88367,3.818988 0.3933,0.283727 2.230477,1.574484 3.117068,3.047731 0.243979,0.407608 0.394633,0.807223 0.391967,1.172204 -0.0027,0.364982 -0.155987,0.693999 -0.527955,0.960409 -0.371969,0.263746 -0.961252,0.463553 -1.826512,0.570117 -0.865259,0.106564 -2.011828,0.119885 -3.493036,0.01066 l -0.121323,-0.01066 c -0.182651,0.925775 -0.277309,1.866203 -0.279976,2.809294 0.0053,0.876489 0.08933,1.750314 0.250645,2.612151 0.473294,-0.07326 2.699771,-0.452897 4.379628,-0.03064 0.46396,0.115889 0.85726,0.294384 1.115905,0.551469 0.258644,0.25975 0.383967,0.600755 0.307974,1.049656 -0.07466,0.447569 -0.347971,1.003034 -0.882592,1.687708 -0.535954,0.683341 -1.338553,1.493228 -2.466457,2.4563 l -0.08799,0.07859 c 1.031912,1.505217 2.331801,2.811958 3.837007,3.854954 0.282642,-0.383631 1.590531,-2.212536 3.079738,-3.094353 0.410631,-0.243765 0.81193,-0.392955 1.179899,-0.392955 0.367969,0.0013 0.701274,0.158514 0.969251,0.527492 0.265311,0.37031 0.46796,0.95508 0.575951,1.81292 0.106658,0.860505 0.118657,1.995412 0.008,3.468659 l -0.008,0.118553 c 0.931921,0.18249 1.882506,0.275734 2.833092,0.281062 0.881259,-0.008 1.75985,-0.09058 2.627777,-0.250425 -0.07333,-0.471546 -0.455962,-2.680085 -0.02933,-4.347812 0.117323,-0.459558 0.295975,-0.85118 0.555952,-1.106934 0.261312,-0.255754 0.609282,-0.379634 1.061244,-0.306372 0.451961,0.0746 1.011913,0.346334 1.698522,0.877822 0.690608,0.531488 1.506538,1.326722 2.475789,2.44298 l 0.07866,0.08925 c 1.518537,-1.024347 2.835759,-2.315103 3.887669,-3.809664 -0.3853,-0.278398 -2.234476,-1.574483 -3.122401,-3.051727 -0.245312,-0.407607 -0.395966,-0.808554 -0.395966,-1.173536 0.0027,-0.364982 0.159986,-0.693998 0.530621,-0.957744 0.371969,-0.265078 0.962585,-0.468882 1.827845,-0.575446 0.86526,-0.106564 2.010495,-0.11722 3.494369,-0.008 l 0.122656,0.008 c 0.182652,-0.925775 0.275977,-1.866202 0.278643,-2.809294 -0.0067,-0.873825 -0.09066,-1.748982 -0.250645,-2.609486 -0.474626,0.07326 -2.69977,0.451565 -4.380961,0.0293 -0.46396,-0.115889 -0.858593,-0.293051 -1.115905,-0.552801 -0.257311,-0.258418 -0.382634,-0.599423 -0.309307,-1.048324 0.07599,-0.447568 0.349304,-1.004365 0.885258,-1.686375 0.535955,-0.683342 1.335887,-1.494561 2.463791,-2.456301 l 0.08932,-0.07859 c -1.031912,-1.509213 -2.334468,-2.814622 -3.839673,-3.857617 -0.282642,0.382298 -1.586531,2.216531 -3.075738,3.097017 -0.411965,0.243765 -0.817264,0.394286 -1.185233,0.392954 -0.366635,-0.0027 -0.697274,-0.158514 -0.965251,-0.527492 -0.267977,-0.368977 -0.46796,-0.952415 -0.574618,-1.81292 -0.10799,-0.859172 -0.122656,-1.994083 -0.01333,-3.464667 l 0.0093,-0.125212 c -0.933254,-0.181159 -1.87984,-0.274403 -2.831759,-0.275735 z m 0,10.830905 c 0.139988,-0.0013 0.278643,0.0053 0.417298,0.01865 0.138654,0.01465 0.274643,0.03597 0.410631,0.06394 0.138655,0.02797 0.27331,0.06261 0.406632,0.101236 0.133322,0.04129 0.262645,0.08792 0.3933,0.139865 0.127989,0.05461 0.253312,0.114556 0.375968,0.182491 0.122657,0.06793 0.241313,0.138533 0.35597,0.215792 0.11599,0.07859 0.226647,0.161178 0.333305,0.250426 0.106658,0.09058 0.207982,0.185154 0.303974,0.28639 0.09732,0.09857 0.191984,0.20114 0.278643,0.309036 0.08533,0.107896 0.166653,0.22112 0.241313,0.338341 0.07599,0.114556 0.142654,0.234441 0.206649,0.359653 0.06399,0.122549 0.122656,0.249094 0.173319,0.375638 0.04933,0.130541 0.09333,0.261082 0.130655,0.395619 0.03733,0.134537 0.06799,0.269075 0.09199,0.406276 0.024,0.137201 0.04,0.271738 0.04933,0.410271 0.0067,0.09857 0.0093,0.19448 0.0093,0.291719 0.0013,0.138533 -0.0053,0.277067 -0.01866,0.416932 -0.01467,0.137201 -0.03333,0.27307 -0.06266,0.410271 -0.028,0.137202 -0.06266,0.269075 -0.103992,0.40228 -0.04133,0.131873 -0.08799,0.262413 -0.142654,0.387626 -0.05466,0.127877 -0.114657,0.251758 -0.182651,0.371642 -0.06799,0.122549 -0.139988,0.239769 -0.218648,0.354326 -0.07866,0.114556 -0.16132,0.225116 -0.250646,0.330348 -0.08933,0.106564 -0.185317,0.2078 -0.285309,0.30504 -0.09999,0.09724 -0.203982,0.187819 -0.31464,0.27307 -0.109324,0.08525 -0.222647,0.166506 -0.339971,0.242433 -0.117323,0.07593 -0.237313,0.142529 -0.361302,0.205136 -0.12399,0.06261 -0.250646,0.119884 -0.379968,0.16917 -0.130656,0.05062 -0.263978,0.09324 -0.398633,0.131873 -0.134655,0.03597 -0.267977,0.0666 -0.406632,0.08925 -0.138655,0.02265 -0.275976,0.04129 -0.417298,0.05195 -0.09732,0.0067 -0.19465,0.008 -0.294641,0.008 -0.138655,0 -0.278643,-0.0067 -0.417298,-0.02131 -0.138655,-0.01332 -0.27731,-0.0333 -0.414631,-0.05994 -0.137322,-0.02797 -0.270644,-0.06261 -0.405299,-0.101236 -0.134655,-0.04129 -0.263978,-0.09058 -0.391967,-0.145194 -0.127989,-0.05461 -0.251978,-0.114556 -0.374635,-0.179826 -0.122656,-0.0666 -0.239979,-0.138534 -0.355969,-0.215793 -0.115991,-0.07726 -0.226648,-0.16251 -0.334639,-0.251757 -0.105324,-0.08791 -0.207982,-0.182491 -0.305307,-0.281063 -0.09732,-0.09857 -0.189317,-0.203803 -0.275976,-0.313031 -0.08533,-0.106565 -0.169319,-0.219789 -0.24398,-0.334345 -0.07599,-0.117221 -0.143987,-0.238437 -0.206649,-0.360986 -0.06399,-0.12388 -0.11999,-0.250425 -0.170652,-0.37697 -0.05066,-0.129209 -0.09466,-0.25975 -0.133322,-0.392955 -0.03866,-0.133205 -0.06666,-0.267742 -0.08933,-0.404943 -0.02533,-0.137201 -0.04133,-0.27307 -0.052,-0.410272 -0.008,-0.09857 -0.01067,-0.197143 -0.01067,-0.297047 0.0013,-0.138533 0.008,-0.275734 0.02267,-0.414267 0.01466,-0.138534 0.03333,-0.273071 0.06133,-0.407608 0.028,-0.137201 0.06266,-0.269074 0.102658,-0.402279 0.04133,-0.133205 0.08933,-0.262414 0.143988,-0.390291 0.05466,-0.127876 0.11599,-0.251757 0.182651,-0.374306 0.06799,-0.121216 0.138655,-0.239769 0.217315,-0.352993 0.07866,-0.113224 0.162652,-0.223784 0.253311,-0.331681 0.08799,-0.103899 0.183985,-0.203803 0.283976,-0.301043 0.101325,-0.09591 0.205316,-0.189151 0.31464,-0.274402 0.109324,-0.08525 0.221315,-0.166507 0.337305,-0.239769 0.118656,-0.07593 0.239979,-0.14253 0.363969,-0.205136 0.123989,-0.06394 0.250645,-0.122549 0.379967,-0.171835 0.130656,-0.04928 0.261311,-0.09324 0.395967,-0.13054 0.134655,-0.0373 0.270643,-0.06794 0.407965,-0.09058 0.138655,-0.02398 0.275976,-0.03996 0.415965,-0.04929 0.101324,-0.0093 0.199983,-0.01332 0.298641,-0.01199 z"
     style="fill:#b6b4a9;stroke-width:1.33263493" /><path
     id="path4355"
     inkscape:connector-curvature="0"
     d="m 66.487676,31.199603 c -0.882592,0.0013 -1.762517,0.07992 -2.630443,0.233108 0.07066,0.456894 0.455961,2.688078 0.02933,4.361133 -0.117324,0.462221 -0.295975,0.85118 -0.555953,1.108266 -0.261311,0.255753 -0.606615,0.380966 -1.057243,0.305039 -0.451962,-0.07326 -1.013247,-0.346333 -1.699856,-0.876489 -0.689274,-0.53282 -1.506538,-1.326722 -2.475789,-2.445644 l -0.07866,-0.09058 c -1.517204,1.02701 -2.833092,2.321763 -3.882336,3.818988 0.3933,0.283726 2.230477,1.574483 3.117068,3.047731 0.245312,0.407607 0.394633,0.807222 0.3933,1.172204 -0.0027,0.366314 -0.15732,0.696662 -0.529289,0.960408 -0.371968,0.265078 -0.961251,0.463554 -1.826511,0.570118 -0.86526,0.107896 -2.010495,0.119884 -3.493036,0.01066 l -0.121323,-0.01066 c -0.182651,0.925774 -0.275976,1.867534 -0.281309,2.810626 0.0067,0.875157 0.09066,1.748982 0.250645,2.610818 0.474626,-0.07326 2.69977,-0.452897 4.379627,-0.03064 0.465294,0.11722 0.858594,0.294383 1.115905,0.551469 0.258645,0.259749 0.383968,0.600754 0.309307,1.049655 -0.07599,0.448901 -0.34797,1.004366 -0.883924,1.687708 -0.537288,0.684674 -1.33722,1.493228 -2.465124,2.457633 l -0.08799,0.07726 c 1.030579,1.505216 2.330469,2.811958 3.835674,3.856285 0.283976,-0.384963 1.590531,-2.213868 3.078405,-3.095685 0.411965,-0.242433 0.814597,-0.392955 1.182566,-0.392955 0.366635,0.0027 0.69994,0.158514 0.967917,0.527492 0.267978,0.368978 0.467961,0.95508 0.574618,1.812921 0.107991,0.859172 0.11999,1.995411 0.01067,3.467326 l -0.01067,0.119885 c 0.934587,0.181159 1.882507,0.274402 2.835759,0.279731 0.881258,-0.008 1.75985,-0.09058 2.627776,-0.250426 -0.07466,-0.471546 -0.455961,-2.678753 -0.03066,-4.347812 0.117324,-0.459557 0.294642,-0.849848 0.557286,-1.105602 0.259978,-0.257085 0.607948,-0.380966 1.05991,-0.307703 0.451962,0.07593 1.011914,0.346333 1.699855,0.877821 0.687942,0.531488 1.505206,1.326722 2.47579,2.445644 l 0.07599,0.08792 c 1.521204,-1.025678 2.838425,-2.315103 3.890336,-3.810995 -0.386634,-0.278399 -2.234477,-1.574484 -3.122401,-3.051727 -0.245313,-0.406276 -0.398633,-0.808555 -0.395966,-1.173537 0.0027,-0.364981 0.158653,-0.693998 0.530621,-0.957744 0.371968,-0.263746 0.961252,-0.467549 1.826511,-0.574113 0.86526,-0.106564 2.011829,-0.118553 3.493036,-0.0093 l 0.125323,0.0093 c 0.179985,-0.924443 0.27331,-1.866203 0.27731,-2.809294 -0.0067,-0.875157 -0.08933,-1.748982 -0.250645,-2.610819 -0.473294,0.0746 -2.699771,0.451565 -4.379628,0.03064 -0.46396,-0.11722 -0.85726,-0.293051 -1.115905,-0.552801 -0.258645,-0.258417 -0.383967,-0.600754 -0.307974,-1.049655 0.07466,-0.447569 0.347971,-1.004366 0.882592,-1.686376 0.535954,-0.683342 1.338553,-1.49456 2.465123,-2.4563 l 0.08933,-0.07859 c -1.033245,-1.509213 -2.333135,-2.814623 -3.839673,-3.857618 -0.282643,0.382299 -1.586532,2.216532 -3.077072,3.097017 -0.409298,0.243765 -0.814597,0.395619 -1.183899,0.392955 -0.366635,-0.0027 -0.695941,-0.157182 -0.963918,-0.527492 -0.267977,-0.37031 -0.469293,-0.953748 -0.575951,-1.814253 -0.107991,-0.859172 -0.122656,-1.994079 -0.012,-3.464662 l 0.0093,-0.123881 c -0.93456,-0.178501 -1.881146,-0.271744 -2.831732,-0.274408 z m 0,10.832232 c 0.138655,-0.0027 0.278643,0.004 0.417298,0.01865 0.138654,0.01332 0.275976,0.03463 0.411965,0.06261 0.137321,0.02797 0.271976,0.06261 0.405298,0.101236 0.134656,0.04129 0.263978,0.08792 0.3933,0.139865 0.129323,0.05461 0.253312,0.114557 0.375968,0.183823 0.122656,0.0666 0.241313,0.138534 0.35597,0.217125 0.11599,0.07859 0.227981,0.161178 0.334638,0.247761 0.103991,0.09058 0.205316,0.185155 0.302641,0.286391 0.09866,0.09857 0.19065,0.201139 0.278643,0.309035 0.08533,0.107896 0.166652,0.221121 0.241313,0.338341 0.07599,0.114556 0.143988,0.235773 0.206649,0.359654 0.06533,0.122548 0.122656,0.249093 0.174652,0.375638 0.04933,0.131873 0.09199,0.261082 0.129322,0.395619 0.03733,0.134537 0.06933,0.269074 0.09199,0.406275 0.02267,0.137201 0.04133,0.27307 0.04933,0.410272 0.008,0.09857 0.01067,0.194479 0.01067,0.293051 0,0.138533 -0.0067,0.275734 -0.01866,0.415599 -0.01467,0.137201 -0.03466,0.273071 -0.06266,0.410272 -0.028,0.137201 -0.064,0.269074 -0.103991,0.402279 -0.04133,0.133205 -0.08933,0.262414 -0.142655,0.388959 -0.05466,0.127876 -0.114657,0.250425 -0.182651,0.371642 -0.06799,0.121216 -0.139988,0.238437 -0.219981,0.352993 -0.07733,0.114556 -0.16132,0.226449 -0.250646,0.330348 -0.08933,0.106564 -0.185317,0.2078 -0.285309,0.30504 -0.09999,0.09724 -0.205316,0.187819 -0.31464,0.27307 -0.109324,0.08658 -0.222647,0.166507 -0.339971,0.242433 -0.11599,0.07593 -0.238646,0.14253 -0.361302,0.205136 -0.122657,0.06261 -0.250646,0.119885 -0.379968,0.169171 -0.130656,0.05062 -0.263978,0.09324 -0.398633,0.133205 -0.134655,0.03596 -0.26931,0.06527 -0.405299,0.08791 -0.138654,0.02398 -0.278643,0.04129 -0.417297,0.05195 -0.09866,0.0067 -0.195984,0.0093 -0.294642,0.0093 -0.139988,0 -0.278643,-0.0067 -0.417298,-0.02265 -0.139988,-0.01332 -0.278643,-0.0333 -0.415964,-0.05994 -0.137322,-0.02797 -0.271977,-0.06127 -0.405299,-0.101236 -0.133322,-0.04129 -0.263978,-0.09058 -0.3933,-0.145193 -0.127989,-0.05328 -0.251979,-0.113225 -0.373302,-0.179827 -0.121323,-0.0666 -0.241313,-0.138533 -0.355969,-0.215792 -0.114657,-0.07726 -0.226648,-0.161178 -0.333305,-0.251758 -0.106658,-0.08658 -0.207983,-0.182491 -0.306641,-0.281062 -0.09599,-0.09857 -0.187984,-0.202472 -0.27331,-0.3117 -0.08799,-0.106564 -0.169319,-0.218456 -0.245313,-0.335677 -0.07599,-0.11722 -0.143987,-0.237105 -0.206649,-0.360985 -0.06399,-0.122549 -0.119989,-0.247762 -0.170652,-0.376971 -0.05066,-0.129208 -0.09466,-0.258417 -0.133322,-0.391622 -0.036,-0.134537 -0.06666,-0.269074 -0.08933,-0.406276 -0.02533,-0.137201 -0.04133,-0.271738 -0.052,-0.410271 -0.0067,-0.09857 -0.0093,-0.197144 -0.0093,-0.295715 0,-0.138533 0.008,-0.277067 0.02133,-0.414268 0.01467,-0.137201 0.03333,-0.27307 0.06266,-0.408939 0.028,-0.137201 0.06,-0.269074 0.101325,-0.402279 0.04133,-0.133206 0.08933,-0.261082 0.145321,-0.390291 0.05466,-0.127877 0.114657,-0.251758 0.182651,-0.372974 0.06666,-0.121217 0.138655,-0.239769 0.215982,-0.352994 0.07866,-0.114556 0.163986,-0.225116 0.253311,-0.33168 0.08933,-0.1039 0.183985,-0.203804 0.283976,-0.301043 0.09999,-0.09724 0.205316,-0.190484 0.315973,-0.275735 0.106658,-0.08525 0.219982,-0.166506 0.335972,-0.239769 0.117323,-0.07593 0.239979,-0.142529 0.363969,-0.205136 0.125323,-0.06394 0.250645,-0.121216 0.379968,-0.171834 0.130655,-0.04929 0.262644,-0.09324 0.395966,-0.129209 0.135988,-0.0373 0.270643,-0.06927 0.409298,-0.09191 0.137322,-0.02398 0.274644,-0.03863 0.414632,-0.04929 0.09866,-0.0093 0.197316,-0.01066 0.297308,-0.01066 z"
     style="fill:#b6b4a9;stroke-width:1.33263493" /><g
     id="g4255"
     transform="matrix(2.0764081,0,0,2.0604452,-20.109417,-30.397631)"><path
       id="path4343"
       inkscape:connector-curvature="0"
       d="m 28.87,38.916 c -0.034,0.237 -0.063,0.503 -0.21,1.144 -0.197,0.864 -0.506,1.912 -0.951,2.654 -0.223,0.371 -0.48,0.666 -0.774,0.822 -0.293,0.156 -0.625,0.172 -0.997,-0.01 -0.372,-0.183 -0.786,-0.564 -1.242,-1.21 -0.456,-0.644 -0.956,-1.551 -1.502,-2.78 l -0.046,-0.107 c -1.57,0.499 -3.037,1.278 -4.33,2.3 0.144,0.193 0.307,0.398 0.655,0.95 0.472,0.75 0.996,1.71 1.206,2.55 0.104,0.42 0.13,0.809 0.033,1.127 -0.098,0.318 -0.32,0.566 -0.712,0.699 -0.392,0.134 -0.954,0.154 -1.732,0.021 -0.778,-0.133 -1.774,-0.419 -3.03,-0.902 l -0.091,-0.035 c -0.765,1.458 -1.26,3.043 -1.462,4.678 0.235,0.035 0.504,0.064 1.144,0.21 0.865,0.198 1.914,0.507 2.656,0.952 0.371,0.223 0.666,0.479 0.822,0.774 0.156,0.294 0.172,0.625 -0.011,0.998 -0.182,0.372 -0.564,0.783 -1.209,1.24 -0.645,0.456 -1.551,0.956 -2.78,1.504 l -0.11,0.047 c 0.493,1.573 1.267,3.044 2.284,4.341 0.187,-0.14 0.406,-0.314 0.969,-0.669 0.75,-0.472 1.711,-0.996 2.55,-1.206 0.42,-0.104 0.809,-0.132 1.127,-0.034 0.319,0.098 0.566,0.321 0.7,0.713 0.134,0.393 0.154,0.955 0.021,1.733 -0.133,0.778 -0.419,1.773 -0.902,3.029 l -0.041,0.106 c 1.461,0.76 3.048,1.251 4.684,1.447 0.034,-0.237 0.063,-0.504 0.209,-1.144 0.197,-0.864 0.506,-1.913 0.952,-2.655 0.222,-0.371 0.478,-0.665 0.773,-0.821 0.294,-0.155 0.626,-0.173 0.998,0.009 0.372,0.183 0.784,0.566 1.241,1.21 0.456,0.645 0.956,1.552 1.503,2.782 l 0.048,0.108 c 1.57,-0.497 3.037,-1.275 4.332,-2.296 -0.143,-0.191 -0.311,-0.4 -0.66,-0.956 -0.472,-0.75 -0.994,-1.71 -1.205,-2.55 -0.105,-0.42 -0.132,-0.81 -0.034,-1.128 0.098,-0.318 0.321,-0.564 0.714,-0.699 0.392,-0.133 0.954,-0.155 1.732,-0.021 0.779,0.133 1.773,0.42 3.029,0.903 l 0.104,0.041 c 0.761,-1.462 1.25,-3.048 1.446,-4.685 -0.236,-0.034 -0.502,-0.063 -1.142,-0.21 -0.863,-0.197 -1.912,-0.504 -2.654,-0.95 -0.371,-0.223 -0.666,-0.48 -0.821,-0.774 -0.156,-0.295 -0.173,-0.626 0.01,-0.998 0.183,-0.372 0.564,-0.785 1.209,-1.242 0.645,-0.457 1.551,-0.955 2.781,-1.502 l 0.108,-0.048 c -0.498,-1.571 -1.275,-3.039 -2.296,-4.332 -0.191,0.143 -0.401,0.309 -0.956,0.658 -0.751,0.472 -1.712,0.996 -2.551,1.205 -0.42,0.105 -0.809,0.133 -1.127,0.034 -0.319,-0.097 -0.566,-0.321 -0.7,-0.713 -0.134,-0.392 -0.154,-0.955 -0.021,-1.733 0.134,-0.778 0.42,-1.772 0.903,-3.028 l 0.041,-0.106 c -1.464,-0.759 -3.05,-1.249 -4.685,-1.445 z m -1.643,9.76 c 0.126,0 0.252,0.006 0.378,0.018 0.125,0.013 0.25,0.032 0.374,0.057 0.124,0.025 0.245,0.056 0.366,0.093 0.121,0.037 0.24,0.081 0.356,0.131 0.116,0.049 0.229,0.104 0.34,0.164 0.11,0.061 0.218,0.127 0.322,0.198 0.104,0.071 0.204,0.147 0.301,0.228 0.097,0.082 0.189,0.168 0.277,0.259 0.088,0.09 0.171,0.185 0.248,0.283 0.079,0.099 0.152,0.202 0.221,0.308 0.068,0.106 0.132,0.216 0.189,0.328 0.056,0.113 0.108,0.228 0.153,0.345 0.046,0.117 0.085,0.237 0.119,0.359 0.034,0.122 0.061,0.245 0.083,0.369 0.022,0.124 0.037,0.249 0.046,0.376 0.006,0.088 0.009,0.178 0.009,0.268 -0.001,0.126 -0.007,0.251 -0.019,0.377 -0.013,0.125 -0.031,0.251 -0.056,0.373 -0.025,0.124 -0.056,0.246 -0.094,0.367 -0.037,0.121 -0.08,0.239 -0.129,0.355 -0.049,0.116 -0.104,0.23 -0.164,0.341 -0.06,0.111 -0.127,0.218 -0.198,0.321 -0.072,0.104 -0.148,0.205 -0.229,0.301 -0.081,0.096 -0.167,0.189 -0.258,0.277 -0.09,0.088 -0.184,0.172 -0.283,0.25 -0.098,0.079 -0.202,0.152 -0.308,0.22 -0.107,0.068 -0.216,0.131 -0.327,0.189 -0.113,0.056 -0.228,0.108 -0.346,0.153 -0.117,0.047 -0.237,0.086 -0.359,0.12 -0.122,0.033 -0.245,0.061 -0.369,0.082 -0.124,0.022 -0.25,0.037 -0.376,0.047 -0.089,0.006 -0.179,0.009 -0.268,0.009 -0.126,-10e-4 -0.252,-0.007 -0.376,-0.02 -0.126,-0.013 -0.251,-0.031 -0.374,-0.056 -0.124,-0.025 -0.246,-0.056 -0.367,-0.093 -0.121,-0.037 -0.24,-0.08 -0.356,-0.129 -0.117,-0.049 -0.23,-0.105 -0.341,-0.165 -0.11,-0.061 -0.218,-0.126 -0.322,-0.198 -0.104,-0.071 -0.204,-0.147 -0.3,-0.228 -0.097,-0.082 -0.189,-0.167 -0.277,-0.258 -0.088,-0.091 -0.172,-0.185 -0.25,-0.284 -0.078,-0.099 -0.151,-0.202 -0.219,-0.309 -0.068,-0.105 -0.132,-0.215 -0.189,-0.328 -0.057,-0.112 -0.109,-0.227 -0.154,-0.345 -0.046,-0.117 -0.086,-0.237 -0.119,-0.359 -0.034,-0.122 -0.061,-0.244 -0.082,-0.369 -0.022,-0.124 -0.037,-0.249 -0.046,-0.376 -0.006,-0.089 -0.009,-0.178 -0.009,-0.266 0,-0.126 0.007,-0.253 0.019,-0.378 0.013,-0.126 0.03,-0.25 0.055,-0.373 0.025,-0.124 0.056,-0.246 0.094,-0.367 0.036,-0.121 0.08,-0.239 0.129,-0.356 0.05,-0.116 0.105,-0.229 0.166,-0.339 0.06,-0.111 0.127,-0.218 0.198,-0.323 0.07,-0.104 0.147,-0.205 0.227,-0.301 0.082,-0.097 0.167,-0.189 0.258,-0.277 0.09,-0.088 0.185,-0.172 0.283,-0.25 0.099,-0.079 0.203,-0.152 0.309,-0.219 0.106,-0.069 0.216,-0.132 0.327,-0.189 0.113,-0.056 0.228,-0.108 0.346,-0.153 0.117,-0.045 0.238,-0.085 0.359,-0.119 0.122,-0.033 0.245,-0.061 0.369,-0.083 0.124,-0.022 0.25,-0.038 0.376,-0.047 0.089,-0.007 0.178,-0.01 0.267,-0.009 z"
       style="fill:#b6b4a9" /></g><g
     id="g82"
     transform="matrix(2.0764081,0,0,2.0604452,31.14756,-78.974712)"><line
       id="line84"
       stroke-miterlimit="10"
       x1="33.929001"
       y1="100.312"
       x2="33.845001"
       y2="100.371"
       style="fill:none;stroke:#b3b3b3;stroke-width:0.22050001;stroke-miterlimit:10" /><polygon
       id="polygon86"
       points="75.356,125.9 83.525,114.467 39.282,114.467 30.596,125.9 "
       style="fill:#263260" /><polygon
       id="polygon88"
       enable-background="new    "
       points="39.743,69.494 83.919,69.494 83.413,114.467 39.743,114.467 "
       style="opacity:0.6;fill:#0a657d" /><polygon
       id="polygon90"
       enable-background="new    "
       points="31.359,81.691 76.035,81.691 75.379,125.9 31.359,125.9 "
       style="opacity:0.6;fill:#0a657d" /><polyline
       id="polyline92"
       enable-background="new    "
       points="83.413,114.731 75.379,125.9    76.035,81.477 83.919,69.398  "
       style="opacity:0.8;fill:#0a657d" /><polyline
       id="polyline94"
       enable-background="new    "
       points="39.9,69.398 31.359,81.88    31.359,125.9 39.9,114.731  "
       style="opacity:0.8;fill:#0a657d" /><polygon
       id="polygon96"
       enable-background="new    "
       points="75.569,125.9 83.604,114.731 75.569,114.745 "
       style="opacity:0.4;fill:#0a657d" /><g
       id="g98"><g
         id="g100"><path
           id="path4152"
           inkscape:connector-curvature="0"
           d="m 59.153,90.16 c -4.147,0 -7.511,3.363 -7.511,7.511 v 0 c 0,4.15 3.364,7.513 7.511,7.513 4.149,0 7.512,-3.363 7.512,-7.513 0,-4.147 -3.363,-7.511 -7.512,-7.511 z m 0,0.751 c 3.734,0 6.761,3.027 6.761,6.76 0,3.734 -3.027,6.761 -6.761,6.761 v 0 c -3.733,0 -6.76,-3.027 -6.76,-6.761 v 0 c 0,-3.733 3.027,-6.76 6.76,-6.76 z"
           style="fill:#ffffff" /><linearGradient
           id="path4190_1_"
           gradientUnits="userSpaceOnUse"
           x1="-751.40381"
           y1="109.9528"
           x2="-734.50238"
           y2="109.9528"
           gradientTransform="matrix(-0.692,-1.0362,1.0291,-0.6873,-570.1927,-599.719)"><stop
             offset="0"
             style="stop-color:#FFFFFF"
             id="stop4117" /><stop
             offset="1"
             style="stop-color:#FFFFFF;stop-opacity:0"
             id="stop4119" /></linearGradient><ellipse
           id="path4190"
           enable-background="new    "
           cx="59.153"
           cy="97.670998"
           rx="10.529"
           ry="10.457"
           style="opacity:0.64200003;fill:url(#path4190_1_)" /></g><path
         id="rect4174-6_1_"
         inkscape:connector-curvature="0"
         d="m 48.201,107.135 4.879,-4.863 c 0.151,-0.15 0.428,-0.114 0.62,0.081 l 0.248,0.254 c 0.191,0.195 0.223,0.475 0.072,0.626 l -4.88,4.862 c -0.151,0.15 -0.428,0.114 -0.618,-0.081 l -0.249,-0.253 c -0.19,-0.196 -0.222,-0.476 -0.072,-0.626 z"
         style="fill:#ffffff" /></g><path
       id="path110"
       inkscape:connector-curvature="0"
       d="m 51.913,104.383 c 0.458,0.479 0.584,1.1 0.283,1.386 l -6.521,6.226 c -0.3,0.287 -0.914,0.131 -1.373,-0.348 v 0 c -0.456,-0.479 -0.584,-1.1 -0.283,-1.387 l 6.521,-6.224 c 0.301,-0.288 0.916,-0.133 1.373,0.347 z"
       style="fill:#ffffff" /></g></svg>