<?xml version="1.0" encoding="UTF-8" standalone="no"?>
<!-- Generator: Adobe Illustrator 16.0.0, SVG Export Plug-In . SVG Version: 6.00 Build 0)  -->

<svg
   xmlns:dc="http://purl.org/dc/elements/1.1/"
   xmlns:cc="http://creativecommons.org/ns#"
   xmlns:rdf="http://www.w3.org/1999/02/22-rdf-syntax-ns#"
   xmlns:svg="http://www.w3.org/2000/svg"
   xmlns="http://www.w3.org/2000/svg"
   xmlns:sodipodi="http://sodipodi.sourceforge.net/DTD/sodipodi-0.dtd"
   xmlns:inkscape="http://www.inkscape.org/namespaces/inkscape"
   version="1.1"
   id="svg4782"
   sodipodi:docname="manohar.svg"
   inkscape:version="0.91 r13725"
   x="0px"
   y="0px"
   width="200.28999"
   height="200.57201"
   viewBox="0 0 200.29 200.572"
   enable-background="new 0 0 160.29 158.572"
   xml:space="preserve"><metadata
     id="metadata114"><rdf:RDF><cc:Work
         rdf:about=""><dc:format>image/svg+xml</dc:format><dc:type
           rdf:resource="http://purl.org/dc/dcmitype/StillImage" /><dc:title></dc:title></cc:Work></rdf:RDF></metadata><defs
     id="defs112" /><sodipodi:namedview
     id="base"
     pagecolor="#ffffff"
     inkscape:cx="-89.166931"
     inkscape:cy="89.611703"
     borderopacity="1"
     fit-margin-left="0"
     bordercolor="#000000"
     inkscape:zoom="1.5774599"
     fit-margin-top="0"
     showgrid="false"
     inkscape:window-maximized="0"
     inkscape:window-y="151"
     inkscape:window-x="184"
     inkscape:window-height="856"
     inkscape:window-width="1440"
     inkscape:pageshadow="2"
     inkscape:pageopacity="0.0"
     fit-margin-bottom="0"
     fit-margin-right="0"
     inkscape:current-layer="svg4782"
     inkscape:document-units="px"
     borderlayer="true" /><path
     style="fill:#b6b4a9"
     d="M 72.940335,51.565115 A 14.850177,14.748951 0 0 0 70.3517,51.794723 c 0.07066,0.450859 0.44974,2.648307 0.03043,4.296057 -0.115302,0.453074 -0.29024,0.837869 -0.547536,1.090631 -0.257297,0.252763 -0.595758,0.375093 -1.04032,0.302114 -0.444563,-0.07298 -0.99593,-0.339887 -1.673031,-0.864046 -0.6771,-0.524152 -1.481636,-1.307089 -2.436541,-2.407845 l -0.07604,-0.09063 a 14.850177,14.748951 0 0 0 -3.820597,3.761317 c 0.386058,0.280487 2.194246,1.550844 3.066207,3.00301 0.240966,0.401302 0.388401,0.794649 0.386317,1.154076 -0.002,0.359423 -0.153711,0.684951 -0.520159,0.945614 -0.366449,0.260663 -0.945617,0.456912 -1.797746,0.561932 -0.852129,0.105022 -1.978193,0.116565 -3.437316,0.009 l -0.118634,-0.009 a 14.850177,14.748951 0 0 0 -0.27681,2.767362 14.850177,14.748951 0 0 0 0.24639,2.570989 c 0.467185,-0.07211 2.657108,-0.444862 4.310333,-0.03022 0.456186,0.11442 0.843618,0.288293 1.098117,0.543804 0.254498,0.255513 0.377667,0.591625 0.304186,1.033229 -0.07347,0.441607 -0.342225,0.988931 -0.869974,1.661625 -0.52775,0.672697 -1.31606,1.471151 -2.424373,2.419934 l -0.08822,0.07552 a 14.850177,14.748951 0 0 0 3.774963,3.797566 c 0.279034,-0.379063 1.565387,-2.180672 3.029704,-3.048326 0.404059,-0.239415 0.80011,-0.388676 1.161997,-0.386707 0.361892,0.0013 0.689654,0.15576 0.952105,0.519639 0.262453,0.363879 0.460047,0.939206 0.565789,1.785483 0.105734,0.846275 0.117359,1.964701 0.0092,3.41387 l -0.0092,0.117867 a 14.850177,14.748951 0 0 0 2.789398,0.27492 14.850177,14.748951 0 0 0 2.58559,-0.244698 c -0.07254,-0.463947 -0.448267,-2.639173 -0.03043,-4.280945 0.115304,-0.453021 0.290181,-0.837886 0.547538,-1.090625 0.257357,-0.25274 0.598652,-0.37506 1.043363,-0.302108 0.44471,0.07294 0.995676,0.33999 1.673031,0.864033 0.677355,0.524043 1.481244,1.307274 2.436539,2.407841 l 0.07604,0.08759 a 14.850177,14.748951 0 0 0 3.826674,-3.752244 c -0.380292,-0.276164 -2.198275,-1.550855 -3.07229,-3.006029 -0.241062,-0.401352 -0.391352,-0.797652 -0.389359,-1.157097 0.0019,-0.359439 0.156824,-0.681967 0.523201,-0.942593 0.366378,-0.260629 0.945662,-0.460039 1.797748,-0.564954 0.852085,-0.104906 1.978184,-0.116754 3.437317,-0.009 l 0.121662,0.009 a 14.850177,14.748951 0 0 0 0.273771,-2.767361 14.850177,14.748951 0 0 0 -0.246393,-2.570989 c -0.467186,0.0721 -2.657105,0.444861 -4.310334,0.03021 -0.456182,-0.11442 -0.843616,-0.288291 -1.098115,-0.543804 -0.254499,-0.255512 -0.377666,-0.591623 -0.304188,-1.033229 0.07347,-0.441607 0.342226,-0.988926 0.869977,-1.661626 0.527749,-0.672694 1.31606,-1.471147 2.424371,-2.419931 l 0.08822,-0.07552 a 14.850177,14.748951 0 0 0 -3.778005,-3.800603 c -0.278061,0.3777 -1.561499,2.18329 -3.026665,3.051347 -0.404104,0.23942 -0.803129,0.388688 -1.165036,0.386706 -0.361906,-0.0019 -0.686647,-0.155755 -0.949063,-0.519633 -0.262416,-0.363879 -0.460154,-0.939217 -0.565789,-1.785493 -0.105636,-0.846278 -0.120602,-1.964706 -0.01211,-3.413885 l 0.0092,-0.120855 A 14.850177,14.748951 0 0 0 72.940425,51.56511 Z m 0,10.667638 a 4.111638,4.0836111 0 0 1 0.410651,0.01813 4.111638,4.0836111 0 0 1 0.404569,0.06344 4.111638,4.0836111 0 0 1 0.398485,0.09969 4.111638,4.0836111 0 0 1 0.386317,0.138971 4.111638,4.0836111 0 0 1 0.371109,0.178247 4.111638,4.0836111 0 0 1 0.349816,0.214501 4.111638,4.0836111 0 0 1 0.328521,0.24471 4.111638,4.0836111 0 0 1 0.298105,0.280968 4.111638,4.0836111 0 0 1 0.273768,0.305136 4.111638,4.0836111 0 0 1 0.237266,0.332323 4.111638,4.0836111 0 0 1 0.203806,0.353474 4.111638,4.0836111 0 0 1 0.170344,0.3716 4.111638,4.0836111 0 0 1 0.127762,0.389727 4.111638,4.0836111 0 0 1 0.09126,0.398791 4.111638,4.0836111 0 0 1 0.04868,0.404832 4.111638,4.0836111 0 0 1 0.0092,0.287007 4.111638,4.0836111 0 0 1 -0.01825,0.407853 4.111638,4.0836111 0 0 1 -0.06084,0.404833 4.111638,4.0836111 0 0 1 -0.103419,0.39577 4.111638,4.0836111 0 0 1 -0.139927,0.383684 4.111638,4.0836111 0 0 1 -0.179469,0.365558 4.111638,4.0836111 0 0 1 -0.215973,0.347431 4.111638,4.0836111 0 0 1 -0.246391,0.32628 4.111638,4.0836111 0 0 1 -0.279854,0.299095 4.111638,4.0836111 0 0 1 -0.310272,0.268882 4.111638,4.0836111 0 0 1 -0.334605,0.238669 4.111638,4.0836111 0 0 1 -0.3559,0.202415 4.111638,4.0836111 0 0 1 -0.374149,0.166162 4.111638,4.0836111 0 0 1 -0.392401,0.12991 4.111638,4.0836111 0 0 1 -0.398486,0.08761 4.111638,4.0836111 0 0 1 -0.410653,0.05137 4.111638,4.0836111 0 0 1 -0.288977,0.009 4.111638,4.0836111 0 0 1 -0.410653,-0.02115 4.111638,4.0836111 0 0 1 -0.407611,-0.06042 4.111638,4.0836111 0 0 1 -0.398485,-0.09969 4.111638,4.0836111 0 0 1 -0.386318,-0.141993 4.111638,4.0836111 0 0 1 -0.368067,-0.178246 4.111638,4.0836111 0 0 1 -0.349815,-0.211479 4.111638,4.0836111 0 0 1 -0.328521,-0.247734 4.111638,4.0836111 0 0 1 -0.301147,-0.277945 4.111638,4.0836111 0 0 1 -0.270726,-0.308155 4.111638,4.0836111 0 0 1 -0.24031,-0.329303 4.111638,4.0836111 0 0 1 -0.203804,-0.356495 4.111638,4.0836111 0 0 1 -0.167302,-0.371601 4.111638,4.0836111 0 0 1 -0.130801,-0.386706 4.111638,4.0836111 0 0 1 -0.08822,-0.39879 4.111638,4.0836111 0 0 1 -0.05171,-0.404831 4.111638,4.0836111 0 0 1 -0.0092,-0.29003 4.111638,4.0836111 0 0 1 0.02129,-0.407853 4.111638,4.0836111 0 0 1 0.06084,-0.401812 4.111638,4.0836111 0 0 1 0.100369,-0.395768 4.111638,4.0836111 0 0 1 0.142968,-0.383685 4.111638,4.0836111 0 0 1 0.17947,-0.368577 4.111638,4.0836111 0 0 1 0.21293,-0.347432 4.111638,4.0836111 0 0 1 0.249434,-0.326283 4.111638,4.0836111 0 0 1 0.279854,-0.296073 4.111638,4.0836111 0 0 1 0.310268,-0.271901 4.111638,4.0836111 0 0 1 0.331565,-0.235648 4.111638,4.0836111 0 0 1 0.358942,-0.202416 4.111638,4.0836111 0 0 1 0.374151,-0.169185 4.111638,4.0836111 0 0 1 0.389359,-0.12689 4.111638,4.0836111 0 0 1 0.401528,-0.09063 4.111638,4.0836111 0 0 1 0.40761,-0.04834 4.111638,4.0836111 0 0 1 0.292021,-0.009 z"
     id="path4379"
     inkscape:connector-curvature="0" /><path
     style="fill:#b6b4a9"
     d="M 58.923386,22.175492 A 14.850177,14.748951 0 0 0 56.334751,22.4051 c 0.07066,0.450857 0.449742,2.648305 0.03043,4.296056 -0.115303,0.453075 -0.290238,0.837868 -0.547535,1.090632 -0.257297,0.252765 -0.595758,0.375092 -1.040322,0.302111 -0.444562,-0.07298 -0.99593,-0.339891 -1.67303,-0.864043 -0.677099,-0.524153 -1.481635,-1.307089 -2.436539,-2.407845 l -0.07605,-0.09063 A 14.850177,14.748951 0 0 0 46.771118,28.4927 c 0.386058,0.280485 2.194246,1.550843 3.066206,3.003008 0.240966,0.401305 0.388402,0.794648 0.386319,1.154076 -0.002,0.359424 -0.153712,0.684951 -0.52016,0.945614 -0.366449,0.260665 -0.945617,0.456912 -1.797746,0.561933 -0.852129,0.105012 -1.978191,0.116564 -3.437316,0.009 l -0.118622,-0.009 a 14.850177,14.748951 0 0 0 -0.276811,2.767362 14.850177,14.748951 0 0 0 0.246392,2.570989 c 0.467185,-0.0721 2.657107,-0.444864 4.310333,-0.03021 0.456184,0.11442 0.843618,0.288293 1.098117,0.543803 0.254497,0.255514 0.377667,0.591625 0.304186,1.03323 -0.07347,0.441606 -0.342226,0.98893 -0.869977,1.661626 -0.527749,0.672696 -1.316057,1.47115 -2.42437,2.419931 l -0.08822,0.07552 a 14.850177,14.748951 0 0 0 3.774964,3.797569 c 0.279035,-0.379057 1.565386,-2.180664 3.029705,-3.048326 0.404057,-0.239419 0.800109,-0.388684 1.161994,-0.386705 0.361893,0.0019 0.689653,0.155759 0.952107,0.519632 0.262452,0.36388 0.460046,0.939218 0.565789,1.785494 0.105734,0.846279 0.11736,1.964706 0.0092,3.413887 l -0.0092,0.117814 a 14.850177,14.748951 0 0 0 2.789398,0.274926 14.850177,14.748951 0 0 0 2.58559,-0.244712 c -0.07254,-0.463939 -0.448269,-2.639169 -0.03043,-4.280952 0.115303,-0.453026 0.29018,-0.837888 0.547538,-1.090631 0.257357,-0.252748 0.598653,-0.375056 1.043362,-0.302115 0.444709,0.07294 0.995676,0.340001 1.67303,0.864047 0.677356,0.524046 1.481246,1.307281 2.43654,2.407845 l 0.07605,0.08761 a 14.850177,14.748951 0 0 0 3.826669,-3.752245 c -0.380292,-0.276166 -2.198275,-1.550857 -3.07229,-3.006033 -0.241061,-0.40135 -0.391351,-0.797652 -0.389359,-1.157097 0.0019,-0.359439 0.156826,-0.681965 0.523202,-0.942591 0.366376,-0.260629 0.94566,-0.46004 1.797747,-0.564955 0.852086,-0.104917 1.97819,-0.116766 3.437315,-0.009 l 0.121663,0.009 a 14.850177,14.748951 0 0 0 0.273771,-2.76736 14.850177,14.748951 0 0 0 -0.246392,-2.570989 c -0.467186,0.0721 -2.657106,0.444861 -4.310335,0.03022 -0.456182,-0.114419 -0.843615,-0.288291 -1.098114,-0.543803 -0.254499,-0.255515 -0.377668,-0.591625 -0.304189,-1.033231 0.07347,-0.441604 0.342226,-0.988929 0.869977,-1.661624 0.527749,-0.672696 1.316057,-1.471149 2.424373,-2.419932 l 0.08822,-0.07552 a 14.850177,14.748951 0 0 0 -3.778011,-3.800589 c -0.278061,0.377701 -1.5615,2.18329 -3.026664,3.05135 -0.404107,0.239417 -0.80313,0.388683 -1.165036,0.386704 -0.361908,-0.0019 -0.686648,-0.155757 -0.949066,-0.519636 -0.262416,-0.363876 -0.460153,-0.939214 -0.565786,-1.785491 -0.105637,-0.846279 -0.120604,-1.964705 -0.01211,-3.413886 l 0.0092,-0.120842 a 14.850177,14.748951 0 0 0 -2.786407,-0.271904 z m 0,10.667637 a 4.111638,4.0836111 0 0 1 0.410652,0.01813 4.111638,4.0836111 0 0 1 0.404571,0.06343 4.111638,4.0836111 0 0 1 0.398483,0.09969 4.111638,4.0836111 0 0 1 0.386319,0.138973 4.111638,4.0836111 0 0 1 0.371108,0.178247 4.111638,4.0836111 0 0 1 0.349816,0.214502 4.111638,4.0836111 0 0 1 0.328521,0.24471 4.111638,4.0836111 0 0 1 0.298105,0.280966 4.111638,4.0836111 0 0 1 0.273768,0.305137 4.111638,4.0836111 0 0 1 0.237266,0.332324 4.111638,4.0836111 0 0 1 0.203806,0.353473 4.111638,4.0836111 0 0 1 0.170343,0.3716 4.111638,4.0836111 0 0 1 0.127761,0.389725 4.111638,4.0836111 0 0 1 0.09126,0.398792 4.111638,4.0836111 0 0 1 0.04868,0.404832 4.111638,4.0836111 0 0 1 0.0092,0.287008 4.111638,4.0836111 0 0 1 -0.01825,0.407852 4.111638,4.0836111 0 0 1 -0.06084,0.404835 4.111638,4.0836111 0 0 1 -0.103429,0.395768 4.111638,4.0836111 0 0 1 -0.139927,0.383686 4.111638,4.0836111 0 0 1 -0.179469,0.365557 4.111638,4.0836111 0 0 1 -0.215974,0.34743 4.111638,4.0836111 0 0 1 -0.246391,0.326283 4.111638,4.0836111 0 0 1 -0.279854,0.299092 4.111638,4.0836111 0 0 1 -0.310271,0.268881 4.111638,4.0836111 0 0 1 -0.334603,0.238671 4.111638,4.0836111 0 0 1 -0.3559,0.202415 4.111638,4.0836111 0 0 1 -0.374151,0.166164 4.111638,4.0836111 0 0 1 -0.392401,0.129908 4.111638,4.0836111 0 0 1 -0.398486,0.08761 4.111638,4.0836111 0 0 1 -0.410652,0.05137 4.111638,4.0836111 0 0 1 -0.288978,0.009 4.111638,4.0836111 0 0 1 -0.410652,-0.02115 4.111638,4.0836111 0 0 1 -0.407612,-0.06042 4.111638,4.0836111 0 0 1 -0.398485,-0.09969 4.111638,4.0836111 0 0 1 -0.386329,-0.141936 4.111638,4.0836111 0 0 1 -0.368067,-0.178246 4.111638,4.0836111 0 0 1 -0.349816,-0.21148 4.111638,4.0836111 0 0 1 -0.328521,-0.247732 4.111638,4.0836111 0 0 1 -0.301147,-0.277946 4.111638,4.0836111 0 0 1 -0.270727,-0.308155 4.111638,4.0836111 0 0 1 -0.240308,-0.329304 4.111638,4.0836111 0 0 1 -0.203805,-0.356495 4.111638,4.0836111 0 0 1 -0.167302,-0.371599 4.111638,4.0836111 0 0 1 -0.130802,-0.386707 4.111638,4.0836111 0 0 1 -0.08822,-0.398791 4.111638,4.0836111 0 0 1 -0.05171,-0.40483 4.111638,4.0836111 0 0 1 -0.0092,-0.290028 4.111638,4.0836111 0 0 1 0.02129,-0.407856 4.111638,4.0836111 0 0 1 0.06084,-0.401811 4.111638,4.0836111 0 0 1 0.100369,-0.395769 4.111638,4.0836111 0 0 1 0.14297,-0.383685 4.111638,4.0836111 0 0 1 0.179469,-0.368579 4.111638,4.0836111 0 0 1 0.212931,-0.347429 4.111638,4.0836111 0 0 1 0.249432,-0.326283 4.111638,4.0836111 0 0 1 0.279854,-0.296073 4.111638,4.0836111 0 0 1 0.31027,-0.271902 4.111638,4.0836111 0 0 1 0.331564,-0.235646 4.111638,4.0836111 0 0 1 0.358943,-0.202418 4.111638,4.0836111 0 0 1 0.374149,-0.169184 4.111638,4.0836111 0 0 1 0.38936,-0.12689 4.111638,4.0836111 0 0 1 0.401526,-0.09063 4.111638,4.0836111 0 0 1 0.407612,-0.04834 4.111638,4.0836111 0 0 1 0.292019,-0.009 z"
     id="path4355"
     inkscape:connector-curvature="0" /><g
     id="g4255"
     transform="matrix(1.5574386,0,0,1.5468224,-15.083346,-22.973425)"><path
       style="fill:#b6b4a9"
       d="m 30.310547,39.544922 c -0.04489,0.309275 -0.08354,0.659716 -0.275391,1.5 -0.258797,1.133469 -0.663859,2.508797 -1.248047,3.482422 -0.292093,0.486812 -0.629697,0.873769 -1.015625,1.078125 -0.385927,0.204355 -0.820507,0.226093 -1.308593,-0.01367 -0.488086,-0.239766 -1.030338,-0.740387 -1.628907,-1.585938 -0.598568,-0.84555 -1.253328,-2.035437 -1.970703,-3.648437 l -0.06055,-0.140625 a 17.92,17.92 0 0 0 -5.68164,3.017578 c 0.188983,0.253406 0.40429,0.521644 0.859375,1.246094 0.618453,0.984515 1.306719,2.24414 1.582031,3.345703 0.137656,0.550781 0.171396,1.061123 0.04297,1.478516 -0.128428,0.417391 -0.418883,0.742398 -0.933594,0.917968 -0.514711,0.175571 -1.252244,0.20203 -2.273437,0.02734 -1.021194,-0.174686 -2.326735,-0.550219 -3.97461,-1.183594 l -0.11914,-0.04687 a 17.92,17.92 0 0 0 -1.917969,6.136719 c 0.308706,0.04476 0.660483,0.08335 1.501953,0.275391 1.13364,0.258718 2.510562,0.663914 3.484375,1.248047 0.486906,0.292062 0.873701,0.629708 1.078125,1.015624 0.204424,0.385918 0.22607,0.820485 -0.01367,1.308594 -0.239742,0.48811 -0.740345,1.028317 -1.585938,1.626953 -0.845589,0.598637 -2.035312,1.255157 -3.648437,1.972657 l -0.144531,0.0625 a 17.92,17.92 0 0 0 2.996094,5.695312 c 0.245077,-0.183273 0.532302,-0.412443 1.271484,-0.876953 0.984453,-0.618641 2.24414,-1.306469 3.345703,-1.582031 0.550781,-0.137782 1.061084,-0.173233 1.478516,-0.04492 0.417431,0.12831 0.742304,0.42093 0.917968,0.935547 0.175664,0.514617 0.201866,1.252299 0.02734,2.273437 -0.174521,1.021139 -0.550469,2.324782 -1.183594,3.972656 l -0.05469,0.138672 a 17.92,17.92 0 0 0 6.144531,1.898438 c 0.04495,-0.309749 0.08377,-0.660442 0.275391,-1.5 0.258718,-1.133547 0.663922,-2.510688 1.248047,-3.484375 0.292062,-0.486844 0.627754,-0.871807 1.013671,-1.076172 0.385919,-0.204365 0.822438,-0.22807 1.310547,0.01172 0.48811,0.239789 1.028317,0.742271 1.626953,1.58789 0.598637,0.84562 1.255157,2.035313 1.972657,3.648438 l 0.0625,0.142578 a 17.92,17.92 0 0 0 5.68164,-3.011719 c -0.187244,-0.250833 -0.407169,-0.524844 -0.865234,-1.253906 -0.618516,-0.984437 -1.304766,-2.244203 -1.580078,-3.345703 -0.137656,-0.55075 -0.173389,-1.063086 -0.04492,-1.480469 0.128467,-0.417383 0.420742,-0.740422 0.935547,-0.916015 0.514805,-0.175596 1.25208,-0.203915 2.273437,-0.0293 1.021358,0.174617 2.326485,0.552291 3.97461,1.185547 l 0.136719,0.05273 A 17.92,17.92 0 0 0 45.919917,59.46289 C 45.60995,59.41789 45.260951,59.37902 44.42187,59.187499 43.288401,58.92878 41.913073,58.52553 40.939448,57.941405 40.452636,57.649343 40.065679,57.311698 39.861323,56.92578 c -0.204355,-0.385918 -0.226094,-0.820484 0.01367,-1.308593 0.239766,-0.48811 0.740386,-1.03027 1.585938,-1.628907 0.84555,-0.598636 2.035437,-1.253203 3.648437,-1.970703 l 0.142578,-0.0625 a 17.92,17.92 0 0 0 -3.011719,-5.683594 c -0.251149,0.187427 -0.525306,0.405585 -1.253906,0.863282 -0.984531,0.618468 -2.246031,1.306656 -3.347656,1.582031 -0.550813,0.137687 -1.061074,0.173301 -1.478516,0.04492 -0.417441,-0.128379 -0.742328,-0.420907 -0.917968,-0.935547 -0.175641,-0.514641 -0.201934,-1.25234 -0.02734,-2.273438 0.17459,-1.021097 0.550344,-2.324906 1.183594,-3.972656 l 0.05469,-0.138672 a 17.92,17.92 0 0 0 -6.142578,-1.896484 z m -2.15625,12.802734 a 4.9619999,4.9619999 0 0 1 0.496094,0.02539 4.9619999,4.9619999 0 0 1 0.490234,0.07422 4.9619999,4.9619999 0 0 1 0.480469,0.121093 4.9619999,4.9619999 0 0 1 0.466797,0.171875 4.9619999,4.9619999 0 0 1 0.445312,0.214844 4.9619999,4.9619999 0 0 1 0.423828,0.259766 4.9619999,4.9619999 0 0 1 0.394531,0.298828 4.9619999,4.9619999 0 0 1 0.363282,0.339844 4.9619999,4.9619999 0 0 1 0.326172,0.371093 4.9619999,4.9619999 0 0 1 0.289062,0.404297 4.9619999,4.9619999 0 0 1 0.248047,0.429688 4.9619999,4.9619999 0 0 1 0.201172,0.453125 4.9619999,4.9619999 0 0 1 0.15625,0.470703 4.9619999,4.9619999 0 0 1 0.109375,0.484375 4.9619999,4.9619999 0 0 1 0.06055,0.492187 4.9619999,4.9619999 0 0 1 0.01172,0.351563 4.9619999,4.9619999 0 0 1 -0.02539,0.494141 4.9619999,4.9619999 0 0 1 -0.07422,0.490234 4.9619999,4.9619999 0 0 1 -0.123047,0.480469 4.9619999,4.9619999 0 0 1 -0.169922,0.466797 4.9619999,4.9619999 0 0 1 -0.214843,0.447265 4.9619999,4.9619999 0 0 1 -0.259766,0.421875 4.9619999,4.9619999 0 0 1 -0.300781,0.394531 4.9619999,4.9619999 0 0 1 -0.337891,0.363282 4.9619999,4.9619999 0 0 1 -0.371094,0.328125 4.9619999,4.9619999 0 0 1 -0.404296,0.287109 4.9619999,4.9619999 0 0 1 -0.429688,0.248047 4.9619999,4.9619999 0 0 1 -0.453125,0.201172 4.9619999,4.9619999 0 0 1 -0.470703,0.158203 4.9619999,4.9619999 0 0 1 -0.484375,0.107422 4.9619999,4.9619999 0 0 1 -0.492188,0.06055 4.9619999,4.9619999 0 0 1 -0.351562,0.01172 4.9619999,4.9619999 0 0 1 -0.494141,-0.02539 4.9619999,4.9619999 0 0 1 -0.490234,-0.07422 4.9619999,4.9619999 0 0 1 -0.480469,-0.121094 4.9619999,4.9619999 0 0 1 -0.466797,-0.169922 4.9619999,4.9619999 0 0 1 -0.447265,-0.216797 4.9619999,4.9619999 0 0 1 -0.421875,-0.259765 4.9619999,4.9619999 0 0 1 -0.394532,-0.298828 4.9619999,4.9619999 0 0 1 -0.363281,-0.337891 4.9619999,4.9619999 0 0 1 -0.328125,-0.373047 4.9619999,4.9619999 0 0 1 -0.287109,-0.404297 4.9619999,4.9619999 0 0 1 -0.248047,-0.429687 4.9619999,4.9619999 0 0 1 -0.203125,-0.453125 4.9619999,4.9619999 0 0 1 -0.15625,-0.470703 4.9619999,4.9619999 0 0 1 -0.107422,-0.484375 4.9619999,4.9619999 0 0 1 -0.06055,-0.492188 4.9619999,4.9619999 0 0 1 -0.01172,-0.349609 4.9619999,4.9619999 0 0 1 0.02539,-0.496094 4.9619999,4.9619999 0 0 1 0.07227,-0.490234 4.9619999,4.9619999 0 0 1 0.123046,-0.480469 4.9619999,4.9619999 0 0 1 0.169922,-0.466797 4.9619999,4.9619999 0 0 1 0.216797,-0.445312 4.9619999,4.9619999 0 0 1 0.259766,-0.423829 4.9619999,4.9619999 0 0 1 0.298828,-0.394531 4.9619999,4.9619999 0 0 1 0.337891,-0.363281 4.9619999,4.9619999 0 0 1 0.373046,-0.328125 4.9619999,4.9619999 0 0 1 0.404297,-0.287109 4.9619999,4.9619999 0 0 1 0.429688,-0.248047 4.9619999,4.9619999 0 0 1 0.453125,-0.201172 4.9619999,4.9619999 0 0 1 0.470703,-0.15625 4.9619999,4.9619999 0 0 1 0.484375,-0.109375 4.9619999,4.9619999 0 0 1 0.492188,-0.06055 4.9619999,4.9619999 0 0 1 0.349609,-0.01172 z"
       id="path4343"
       transform="translate(0.36979668,1.4791867)"
       inkscape:connector-curvature="0" /></g><text
     transform="scale(0.87897668,1.1376866)"
     font-size="10.5775"
     id="text78"
     style="font-size:9.29737568px;font-family:NotoSans"
     x="49.936394"
     y="55.845856" />
<g
     id="g82"
     transform="matrix(1.5574386,0,0,1.5468224,23.362658,-59.441329)"><line
       stroke-miterlimit="10"
       x1="45.016998"
       y1="114.216"
       x2="44.907001"
       y2="114.294"
       id="line84"
       style="fill:none;stroke:#b3b3b3;stroke-width:0.22050001;stroke-miterlimit:10" /><polygon
       points="52.039,132.786 40.645,147.786 99.365,147.786 110.083,132.786 "
       id="polygon86"
       style="fill:#263260" /><polygon
       points="109.936,132.786 52.645,132.786 52.645,73.786 110.6,73.786 "
       id="polygon88"
       style="opacity:0.6;fill:#0d809f" /><polygon
       points="99.395,147.786 41.645,147.786 41.645,89.786 100.256,89.786 "
       id="polygon90"
       style="opacity:0.6;fill:#0d809f" /><polyline
       points="109.936,133.133 99.395,147.786 100.256,89.506 110.6,73.659  "
       id="polyline92"
       style="opacity:0.8;fill:#0d809f" /><polyline
       points="52.85,73.659 41.645,90.036 41.645,147.786 52.85,133.133  "
       id="polyline94"
       style="opacity:0.8;fill:#0d809f" /><polygon
       points="99.645,133.152 99.645,147.786 110.186,133.133 "
       id="polygon96"
       style="opacity:0.4;fill:#0d809f" /><g
       id="g98"><g
         id="g100"><path
           id="path4152"
           inkscape:connector-curvature="0"
           d="m 78.109,100.898 c -5.442,0 -9.854,4.412 -9.854,9.854 l 0,0 c 0,5.444 4.412,9.856 9.854,9.856 5.442,0 9.855,-4.412 9.855,-9.856 0,-5.442 -4.413,-9.854 -9.855,-9.854 l 0,0 z m 0,0.985 c 4.898,0 8.869,3.971 8.869,8.868 0,4.899 -3.971,8.87 -8.869,8.87 l 0,0 c -4.898,0 -8.869,-3.971 -8.869,-8.87 l 0,0 c 0,-4.897 3.971,-8.868 8.869,-8.868 z"
           style="fill:#ffffff" /><linearGradient
           id="path4190_1_"
           gradientUnits="userSpaceOnUse"
           x1="-624.94873"
           y1="346.26682"
           x2="-602.7749"
           y2="346.26682"
           gradientTransform="matrix(-0.4443,-0.6653,-0.6653,0.4443,35.7405,-451.4844)"><stop
             offset="0"
             style="stop-color:#FFFFFF"
             id="stop104" /><stop
             offset="1"
             style="stop-color:#FFFFFF;stop-opacity:0"
             id="stop106" /></linearGradient><circle
           id="path4190"
           enable-background="new    "
           cx="78.109001"
           cy="110.752"
           r="8.8690004"
           style="opacity:0.64200003;fill:url(#path4190_1_)" /></g><path
         id="rect4174-6_1_"
         d="m 63.741,123.167 6.401,-6.38 c 0.198,-0.197 0.561,-0.15 0.812,0.106 l 0.326,0.333 c 0.25,0.256 0.292,0.624 0.095,0.821 l -6.402,6.379 c -0.197,0.197 -0.561,0.149 -0.811,-0.106 l -0.326,-0.333 c -0.25,-0.256 -0.293,-0.623 -0.095,-0.82 z"
         inkscape:connector-curvature="0"
         style="fill:#ffffff" /></g><path
       d="m 68.61,119.557 c 0.6,0.629 0.767,1.443 0.372,1.819 l -8.555,8.167 c -0.394,0.377 -1.201,0.172 -1.801,-0.457 l 0,0 c -0.6,-0.629 -0.767,-1.443 -0.372,-1.819 l 8.555,-8.166 c 0.395,-0.377 1.201,-0.173 1.801,0.456 l 0,0 z"
       id="path110"
       inkscape:connector-curvature="0"
       style="fill:#ffffff" /></g></svg>